<svg width="1461" height="223" viewBox="0 0 1461 223" fill="none" xmlns="http://www.w3.org/2000/svg">
<path d="M0.168 219H48.552L62.952 175.224H141.576L155.976 219H204.648L132.072 4.43998H72.744L0.168 219ZM75.336 136.344L102.408 53.688L129.192 136.344H75.336ZM226.945 219H317.666C342.626 219 362.114 213.144 376.13 201.432C390.146 189.72 397.154 173.304 397.154 152.184C397.154 142.776 395.426 133.944 391.97 125.688C388.706 117.24 382.37 109.752 372.962 103.224C378.338 98.04 382.178 92.376 384.482 86.232C386.978 80.088 388.226 73.752 388.226 67.224C388.226 47.448 381.986 32.088 369.506 21.144C357.218 10.008 339.938 4.43998 317.666 4.43998H226.945V219ZM271.586 85.08V41.88H320.834C327.746 41.88 333.218 43.896 337.25 47.928C341.474 51.768 343.586 56.952 343.586 63.48C343.586 70.008 341.474 75.288 337.25 79.32C333.218 83.16 327.746 85.08 320.834 85.08H271.586ZM271.586 180.12V123.96H322.85C331.874 123.96 339.074 126.552 344.45 131.736C349.826 136.92 352.514 143.736 352.514 152.184C352.514 160.44 349.826 167.16 344.45 172.344C339.074 177.528 331.874 180.12 322.85 180.12H271.586ZM533.213 222.456C549.341 222.456 564.317 219.672 578.141 214.104C591.965 208.536 603.965 200.76 614.141 190.776C624.509 180.6 632.573 168.792 638.333 155.352C644.093 141.912 646.973 127.32 646.973 111.576C646.973 95.832 644.093 81.24 638.333 67.8C632.765 54.36 624.797 42.648 614.429 32.664C604.253 22.68 592.253 14.904 578.429 9.33599C564.605 3.76799 549.533 0.983992 533.213 0.983992C516.893 0.983992 501.821 3.76799 487.997 9.33599C474.173 14.904 462.077 22.68 451.709 32.664C441.533 42.648 433.565 54.36 427.805 67.8C422.237 81.24 419.453 95.832 419.453 111.576C419.453 127.32 422.333 141.912 428.093 155.352C433.853 168.792 441.821 180.6 451.997 190.776C462.365 200.76 474.461 208.536 488.285 214.104C502.109 219.672 517.085 222.456 533.213 222.456ZM533.213 182.136C520.157 182.136 508.349 179.16 497.789 173.208C487.421 167.064 479.165 158.712 473.021 148.152C467.069 137.592 464.093 125.4 464.093 111.576C464.093 97.752 467.069 85.56 473.021 75C479.165 64.44 487.421 56.184 497.789 50.232C508.349 44.28 520.157 41.304 533.213 41.304C546.269 41.304 557.981 44.28 568.349 50.232C578.909 56.184 587.165 64.44 593.117 75C599.261 85.56 602.333 97.752 602.333 111.576C602.333 125.4 599.261 137.592 593.117 148.152C587.165 158.712 578.909 167.064 568.349 173.208C557.981 179.16 546.269 182.136 533.213 182.136ZM763.881 222.456C780.777 222.456 795.849 218.904 809.097 211.8C822.345 204.696 832.713 195 840.201 182.712C847.881 170.232 851.721 156.12 851.721 140.376V4.43998H807.081V137.496C807.081 145.944 805.161 153.624 801.321 160.536C797.673 167.256 792.585 172.536 786.057 176.376C779.721 180.216 772.329 182.136 763.881 182.136C755.625 182.136 748.233 180.216 741.705 176.376C735.177 172.536 729.993 167.256 726.153 160.536C722.505 153.624 720.681 145.944 720.681 137.496V4.43998H676.041V140.376C676.041 156.12 679.785 170.232 687.273 182.712C694.953 195 705.417 204.696 718.665 211.8C731.913 218.904 746.985 222.456 763.881 222.456ZM925.631 219H970.271V43.32H1023.84V4.43998H871.199V43.32H925.631V219ZM1182.94 222.456C1199.84 222.456 1214.91 218.904 1228.16 211.8C1241.41 204.696 1251.78 195 1259.26 182.712C1266.94 170.232 1270.78 156.12 1270.78 140.376V4.43998H1226.14V137.496C1226.14 145.944 1224.22 153.624 1220.38 160.536C1216.74 167.256 1211.65 172.536 1205.12 176.376C1198.78 180.216 1191.39 182.136 1182.94 182.136C1174.69 182.136 1167.3 180.216 1160.77 176.376C1154.24 172.536 1149.06 167.256 1145.22 160.536C1141.57 153.624 1139.74 145.944 1139.74 137.496V4.43998H1095.1V140.376C1095.1 156.12 1098.85 170.232 1106.34 182.712C1114.02 195 1124.48 204.696 1137.73 211.8C1150.98 218.904 1166.05 222.456 1182.94 222.456ZM1384.15 222.456C1399.32 222.456 1412.57 219.768 1423.89 214.392C1435.41 208.824 1444.44 201.24 1450.97 191.64C1457.49 181.848 1460.76 170.712 1460.76 158.232C1460.76 129.432 1443.57 109.464 1409.21 98.328L1368.02 85.08C1354.97 80.664 1348.44 73.368 1348.44 63.192C1348.44 56.28 1351.22 50.712 1356.79 46.488C1362.36 42.072 1369.65 39.864 1378.68 39.864C1389.05 39.864 1398.26 42.744 1406.33 48.504C1414.39 54.072 1420.44 61.848 1424.47 71.832L1460.76 55.416C1454.81 38.52 1444.44 25.272 1429.65 15.672C1415.06 5.87999 1398.07 0.983992 1378.68 0.983992C1364.09 0.983992 1351.13 3.67199 1339.8 9.04799C1328.66 14.424 1319.93 21.912 1313.59 31.512C1307.45 41.112 1304.37 52.248 1304.37 64.92C1304.37 94.104 1321.56 114.36 1355.93 125.688L1397.97 139.512C1410.65 143.736 1416.98 150.84 1416.98 160.824C1416.98 167.736 1414.2 173.304 1408.63 177.528C1403.25 181.56 1396.05 183.576 1387.03 183.576C1375.51 183.576 1364.95 180.216 1355.35 173.496C1345.94 166.776 1338.55 157.56 1333.17 145.848L1296.6 162.264C1300.82 174.552 1307.16 185.208 1315.61 194.232C1324.25 203.256 1334.42 210.264 1346.13 215.256C1358.04 220.056 1370.71 222.456 1384.15 222.456Z" fill="#F2F2F2"/>
</svg>
