<svg width="1403" height="223" viewBox="0 0 1403 223" fill="none" xmlns="http://www.w3.org/2000/svg">
<path d="M108.96 222.456C124.512 222.456 138.432 219.864 150.72 214.68C163.2 209.496 173.76 202.584 182.4 193.944C191.04 185.304 197.184 175.704 200.832 165.144L161.376 146.136C157.728 156.504 151.296 165.144 142.08 172.056C133.056 178.776 122.016 182.136 108.96 182.136C96.288 182.136 85.152 179.16 75.552 173.208C65.952 167.256 58.464 159 53.088 148.44C47.904 137.88 45.312 125.592 45.312 111.576C45.312 97.56 47.904 85.368 53.088 75C58.464 64.44 65.952 56.184 75.552 50.232C85.152 44.28 96.288 41.304 108.96 41.304C122.016 41.304 133.056 44.76 142.08 51.672C151.296 58.392 157.728 66.936 161.376 77.304L200.832 58.296C197.184 47.736 191.04 38.136 182.4 29.496C173.76 20.856 163.2 13.944 150.72 8.75999C138.432 3.57599 124.512 0.983992 108.96 0.983992C93.408 0.983992 79.008 3.76799 65.76 9.33599C52.704 14.712 41.28 22.392 31.488 32.376C21.696 42.168 14.112 53.88 8.736 67.512C3.36 80.952 0.672001 95.64 0.672001 111.576C0.672001 127.512 3.36 142.2 8.736 155.64C14.304 169.08 21.984 180.792 31.776 190.776C41.568 200.76 52.992 208.536 66.048 214.104C79.296 219.672 93.6 222.456 108.96 222.456ZM336.901 222.456C353.029 222.456 368.005 219.672 381.829 214.104C395.653 208.536 407.653 200.76 417.829 190.776C428.197 180.6 436.261 168.792 442.021 155.352C447.781 141.912 450.661 127.32 450.661 111.576C450.661 95.832 447.781 81.24 442.021 67.8C436.453 54.36 428.485 42.648 418.117 32.664C407.941 22.68 395.941 14.904 382.117 9.33599C368.293 3.76799 353.221 0.983992 336.901 0.983992C320.581 0.983992 305.509 3.76799 291.685 9.33599C277.861 14.904 265.765 22.68 255.397 32.664C245.221 42.648 237.253 54.36 231.493 67.8C225.925 81.24 223.141 95.832 223.141 111.576C223.141 127.32 226.021 141.912 231.781 155.352C237.541 168.792 245.509 180.6 255.685 190.776C266.053 200.76 278.149 208.536 291.973 214.104C305.797 219.672 320.773 222.456 336.901 222.456ZM336.901 182.136C323.845 182.136 312.037 179.16 301.477 173.208C291.109 167.064 282.853 158.712 276.709 148.152C270.757 137.592 267.781 125.4 267.781 111.576C267.781 97.752 270.757 85.56 276.709 75C282.853 64.44 291.109 56.184 301.477 50.232C312.037 44.28 323.845 41.304 336.901 41.304C349.957 41.304 361.669 44.28 372.037 50.232C382.597 56.184 390.853 64.44 396.805 75C402.949 85.56 406.021 97.752 406.021 111.576C406.021 125.4 402.949 137.592 396.805 148.152C390.853 158.712 382.597 167.064 372.037 173.208C361.669 179.16 349.957 182.136 336.901 182.136ZM482.32 219H526.961V88.536L623.441 219H658.001V4.43998H613.361V132.024L516.593 4.43998H482.32V219ZM734.663 219H779.303V43.32H832.871V4.43998H680.231V43.32H734.663V219ZM824.793 219H873.177L887.577 175.224H966.201L980.601 219H1029.27L956.697 4.43998H897.369L824.793 219ZM899.961 136.344L927.033 53.688L953.817 136.344H899.961ZM1144.8 222.456C1160.36 222.456 1174.28 219.864 1186.56 214.68C1199.04 209.496 1209.6 202.584 1218.24 193.944C1226.88 185.304 1233.03 175.704 1236.68 165.144L1197.22 146.136C1193.57 156.504 1187.14 165.144 1177.92 172.056C1168.9 178.776 1157.86 182.136 1144.8 182.136C1132.13 182.136 1121 179.16 1111.4 173.208C1101.8 167.256 1094.31 159 1088.93 148.44C1083.75 137.88 1081.16 125.592 1081.16 111.576C1081.16 97.56 1083.75 85.368 1088.93 75C1094.31 64.44 1101.8 56.184 1111.4 50.232C1121 44.28 1132.13 41.304 1144.8 41.304C1157.86 41.304 1168.9 44.76 1177.92 51.672C1187.14 58.392 1193.57 66.936 1197.22 77.304L1236.68 58.296C1233.03 47.736 1226.88 38.136 1218.24 29.496C1209.6 20.856 1199.04 13.944 1186.56 8.75999C1174.28 3.57599 1160.36 0.983992 1144.8 0.983992C1129.25 0.983992 1114.85 3.76799 1101.6 9.33599C1088.55 14.712 1077.12 22.392 1067.33 32.376C1057.54 42.168 1049.96 53.88 1044.58 67.512C1039.2 80.952 1036.52 95.64 1036.52 111.576C1036.52 127.512 1039.2 142.2 1044.58 155.64C1050.15 169.08 1057.83 180.792 1067.62 190.776C1077.41 200.76 1088.84 208.536 1101.89 214.104C1115.14 219.672 1129.44 222.456 1144.8 222.456ZM1303.91 219H1348.55V43.32H1402.12V4.43998H1249.48V43.32H1303.91V219Z" fill="#F2F2F2"/>
</svg>
