<svg width="556" height="987" viewBox="0 0 556 987" fill="none" xmlns="http://www.w3.org/2000/svg">
<g filter="url(#filter0_f)">
<rect x="106.917" y="106.359" width="379.423" height="773.641" rx="41" fill="#D5E3ED"/>
</g>
<g filter="url(#filter1_iiii)">
<rect x="46" y="35" width="379.423" height="773.641" rx="41" fill="url(#paint0_linear)"/>
</g>
<rect x="66.0154" y="53.275" width="339.392" height="734.48" rx="22" fill="white" fill-opacity="0.01"/>
<rect x="179.146" y="64.588" width="98.3368" height="5.22142" rx="2.61071" fill="#E4F0F9"/>
<circle cx="289.231" cy="67.6339" r="3.91607" fill="#E4F0F9"/>
<path d="M85.056 159.032H86.368V159.144C86.304 159.208 86.2613 159.277 86.24 159.352C86.2293 159.427 86.224 159.555 86.224 159.736V168.04H91.024V169H85.056V159.032ZM95.344 169V159.016H101.456V160.008H96.4V163.288H100.576V164.312H96.4V168.008H101.408V169H95.344ZM108.752 169.16C107.461 169.16 106.421 168.739 105.632 167.896L106.208 166.888L106.272 166.744L106.384 166.808C106.405 166.883 106.432 166.968 106.464 167.064C106.496 167.149 106.571 167.256 106.688 167.384C106.965 167.619 107.285 167.805 107.648 167.944C108.021 168.083 108.443 168.152 108.912 168.152C109.509 168.152 110 167.987 110.384 167.656C110.779 167.315 110.976 166.909 110.976 166.44C110.976 166.131 110.912 165.869 110.784 165.656C110.667 165.443 110.443 165.235 110.112 165.032C109.792 164.829 109.317 164.595 108.688 164.328C107.653 163.923 106.939 163.469 106.544 162.968C106.149 162.467 105.952 161.933 105.952 161.368C105.952 160.632 106.224 160.04 106.768 159.592C107.312 159.133 108.053 158.904 108.992 158.904C109.536 158.904 110.048 159.016 110.528 159.24C111.008 159.453 111.419 159.757 111.76 160.152L111.04 161.112L110.944 161.048C110.933 160.963 110.912 160.877 110.88 160.792C110.848 160.707 110.773 160.6 110.656 160.472C110.4 160.227 110.128 160.061 109.84 159.976C109.552 159.88 109.211 159.832 108.816 159.832C108.293 159.832 107.877 159.976 107.568 160.264C107.259 160.552 107.104 160.893 107.104 161.288C107.104 161.587 107.168 161.853 107.296 162.088C107.435 162.312 107.68 162.536 108.032 162.76C108.384 162.984 108.896 163.229 109.568 163.496C110.219 163.763 110.725 164.035 111.088 164.312C111.451 164.579 111.707 164.872 111.856 165.192C112.005 165.501 112.08 165.864 112.08 166.28C112.08 166.739 111.963 167.192 111.728 167.64C111.504 168.077 111.147 168.44 110.656 168.728C110.165 169.016 109.531 169.16 108.752 169.16ZM119.152 169.16C117.861 169.16 116.821 168.739 116.032 167.896L116.608 166.888L116.672 166.744L116.784 166.808C116.805 166.883 116.832 166.968 116.864 167.064C116.896 167.149 116.971 167.256 117.088 167.384C117.365 167.619 117.685 167.805 118.048 167.944C118.421 168.083 118.843 168.152 119.312 168.152C119.909 168.152 120.4 167.987 120.784 167.656C121.179 167.315 121.376 166.909 121.376 166.44C121.376 166.131 121.312 165.869 121.184 165.656C121.067 165.443 120.843 165.235 120.512 165.032C120.192 164.829 119.717 164.595 119.088 164.328C118.053 163.923 117.339 163.469 116.944 162.968C116.549 162.467 116.352 161.933 116.352 161.368C116.352 160.632 116.624 160.04 117.168 159.592C117.712 159.133 118.453 158.904 119.392 158.904C119.936 158.904 120.448 159.016 120.928 159.24C121.408 159.453 121.819 159.757 122.16 160.152L121.44 161.112L121.344 161.048C121.333 160.963 121.312 160.877 121.28 160.792C121.248 160.707 121.173 160.6 121.056 160.472C120.8 160.227 120.528 160.061 120.24 159.976C119.952 159.88 119.611 159.832 119.216 159.832C118.693 159.832 118.277 159.976 117.968 160.264C117.659 160.552 117.504 160.893 117.504 161.288C117.504 161.587 117.568 161.853 117.696 162.088C117.835 162.312 118.08 162.536 118.432 162.76C118.784 162.984 119.296 163.229 119.968 163.496C120.619 163.763 121.125 164.035 121.488 164.312C121.851 164.579 122.107 164.872 122.256 165.192C122.405 165.501 122.48 165.864 122.48 166.28C122.48 166.739 122.363 167.192 122.128 167.64C121.904 168.077 121.547 168.44 121.056 168.728C120.565 169.016 119.931 169.16 119.152 169.16ZM129.6 169.176C128.459 169.176 127.579 168.733 126.96 167.848C126.341 166.963 126.032 165.704 126.032 164.072C126.032 162.493 126.341 161.251 126.96 160.344C127.579 159.427 128.459 158.968 129.6 158.968C130.741 158.968 131.621 159.427 132.24 160.344C132.859 161.251 133.168 162.493 133.168 164.072C133.168 165.704 132.859 166.963 132.24 167.848C131.621 168.733 130.741 169.176 129.6 169.176ZM129.6 168.2C130.357 168.2 130.949 167.843 131.376 167.128C131.803 166.413 132.016 165.395 132.016 164.072C132.016 162.813 131.803 161.811 131.376 161.064C130.949 160.317 130.357 159.944 129.6 159.944C128.843 159.944 128.251 160.317 127.824 161.064C127.397 161.811 127.184 162.813 127.184 164.072C127.184 165.395 127.397 166.413 127.824 167.128C128.251 167.843 128.843 168.2 129.6 168.2ZM136.8 159.032H137.888L142.08 166.424V159.032H143.296V159.144C143.232 159.208 143.189 159.277 143.168 159.352C143.157 159.427 143.152 159.555 143.152 159.736V169H142.272L137.872 161.16V169H136.8V159.032ZM158.576 164.504V163.432H163.056V164.504H158.576ZM181.6 169.176C180.459 169.176 179.579 168.733 178.96 167.848C178.341 166.963 178.032 165.704 178.032 164.072C178.032 162.493 178.341 161.251 178.96 160.344C179.579 159.427 180.459 158.968 181.6 158.968C182.741 158.968 183.621 159.427 184.24 160.344C184.859 161.251 185.168 162.493 185.168 164.072C185.168 165.704 184.859 166.963 184.24 167.848C183.621 168.733 182.741 169.176 181.6 169.176ZM181.6 168.2C182.357 168.2 182.949 167.843 183.376 167.128C183.803 166.413 184.016 165.395 184.016 164.072C184.016 162.813 183.803 161.811 183.376 161.064C182.949 160.317 182.357 159.944 181.6 159.944C180.843 159.944 180.251 160.317 179.824 161.064C179.397 161.811 179.184 162.813 179.184 164.072C179.184 165.395 179.397 166.413 179.824 167.128C180.251 167.843 180.843 168.2 181.6 168.2ZM191.68 169V160.408L189.664 161L189.408 160.376L192.016 159.016H192.8V169H191.68Z" fill="#777777"/>
<path d="M99.3 209.432C100.884 209.432 102.42 209.168 103.908 208.64C105.396 208.088 106.728 207.284 107.904 206.228C109.104 205.148 110.052 203.828 110.748 202.268C111.444 200.684 111.792 198.848 111.792 196.76V194.06H99.192V198.2H106.896V198.308C106.896 199.676 106.548 200.864 105.852 201.872C105.156 202.856 104.232 203.624 103.08 204.176C101.928 204.704 100.668 204.968 99.3 204.968C97.62 204.968 96.132 204.572 94.836 203.78C93.54 202.988 92.52 201.896 91.776 200.504C91.056 199.088 90.696 197.444 90.696 195.572C90.696 193.7 91.056 192.068 91.776 190.676C92.496 189.26 93.492 188.168 94.764 187.4C96.036 186.608 97.512 186.212 99.192 186.212C100.896 186.212 102.348 186.644 103.548 187.508C104.748 188.372 105.612 189.5 106.14 190.892L110.496 188.804C110.04 187.532 109.284 186.368 108.228 185.312C107.172 184.232 105.876 183.368 104.34 182.72C102.828 182.072 101.112 181.748 99.192 181.748C97.272 181.748 95.496 182.096 93.864 182.792C92.232 183.464 90.816 184.424 89.616 185.672C88.416 186.896 87.48 188.36 86.808 190.064C86.136 191.744 85.8 193.58 85.8 195.572C85.8 197.564 86.136 199.412 86.808 201.116C87.504 202.796 88.464 204.26 89.688 205.508C90.912 206.756 92.34 207.728 93.972 208.424C95.604 209.096 97.38 209.432 99.3 209.432ZM123.658 209.432C125.65 209.432 127.39 208.988 128.878 208.1C130.39 207.188 131.446 206.036 132.046 204.644L128.23 202.772C127.798 203.516 127.198 204.128 126.43 204.608C125.686 205.064 124.774 205.292 123.694 205.292C122.278 205.292 121.09 204.86 120.13 203.996C119.17 203.132 118.618 201.98 118.474 200.54H132.586C132.682 200.276 132.742 199.976 132.766 199.64C132.814 199.28 132.838 198.92 132.838 198.56C132.838 196.808 132.466 195.212 131.722 193.772C130.978 192.332 129.898 191.18 128.482 190.316C127.066 189.428 125.338 188.984 123.298 188.984C121.474 188.984 119.818 189.428 118.33 190.316C116.866 191.204 115.702 192.416 114.838 193.952C113.998 195.464 113.578 197.204 113.578 199.172C113.578 201.068 113.998 202.796 114.838 204.356C115.678 205.916 116.854 207.152 118.366 208.064C119.878 208.976 121.642 209.432 123.658 209.432ZM123.298 192.872C124.546 192.872 125.578 193.256 126.394 194.024C127.234 194.768 127.702 195.74 127.798 196.94H118.582C118.846 195.644 119.398 194.648 120.238 193.952C121.102 193.232 122.122 192.872 123.298 192.872ZM144.441 209.216C145.233 209.216 146.013 209.156 146.781 209.036V204.968C146.325 205.04 145.905 205.076 145.521 205.076C144.369 205.076 143.529 204.812 143.001 204.284C142.473 203.756 142.209 203 142.209 202.016V193.628H146.709V189.416H142.209V184.952H137.493V186.464C137.493 187.424 137.229 188.156 136.701 188.66C136.173 189.164 135.429 189.416 134.469 189.416H134.109V193.628H137.493V202.268C137.493 204.452 138.093 206.156 139.293 207.38C140.517 208.604 142.233 209.216 144.441 209.216ZM155.379 209H160.275V198.236H171.651V193.916H160.275V186.5H173.271V182.18H155.379V209ZM180.273 209.432C182.817 209.432 184.857 208.592 186.393 206.912V209H190.857V195.968C190.857 194.6 190.509 193.388 189.813 192.332C189.117 191.276 188.157 190.46 186.933 189.884C185.733 189.284 184.329 188.984 182.721 188.984C180.753 188.984 179.001 189.452 177.465 190.388C175.929 191.324 174.873 192.56 174.297 194.096L178.149 195.968C178.509 195.08 179.073 194.372 179.841 193.844C180.609 193.292 181.509 193.016 182.541 193.016C183.621 193.016 184.485 193.304 185.133 193.88C185.805 194.432 186.141 195.128 186.141 195.968V196.616L180.309 197.552C178.005 197.936 176.301 198.668 175.197 199.748C174.093 200.828 173.541 202.184 173.541 203.816C173.541 205.544 174.153 206.912 175.377 207.92C176.601 208.928 178.233 209.432 180.273 209.432ZM178.437 203.636C178.437 202.268 179.361 201.404 181.209 201.044L186.141 200.216V201.008C186.141 202.352 185.673 203.492 184.737 204.428C183.825 205.364 182.625 205.832 181.137 205.832C180.345 205.832 179.697 205.64 179.193 205.256C178.689 204.848 178.437 204.308 178.437 203.636ZM194.316 209H199.032V197.516C199.032 196.244 199.38 195.224 200.076 194.456C200.772 193.688 201.684 193.304 202.812 193.304C203.964 193.304 204.876 193.688 205.548 194.456C206.244 195.2 206.592 196.22 206.592 197.516V209H211.308V197.516C211.308 196.244 211.656 195.224 212.352 194.456C213.048 193.688 213.96 193.304 215.088 193.304C216.24 193.304 217.152 193.688 217.824 194.456C218.52 195.2 218.868 196.22 218.868 197.516V209H223.584V196.4C223.584 194.936 223.26 193.652 222.612 192.548C221.988 191.42 221.136 190.544 220.056 189.92C218.976 189.296 217.74 188.984 216.348 188.984C215.052 188.984 213.876 189.248 212.82 189.776C211.788 190.304 210.936 191.096 210.264 192.152C209.688 191.192 208.86 190.424 207.78 189.848C206.724 189.272 205.536 188.984 204.216 188.984C202.992 188.984 201.9 189.224 200.94 189.704C199.98 190.184 199.248 190.904 198.744 191.864V189.416H194.316V209ZM226.673 187.22H231.389V182.18H226.673V187.22ZM226.673 209H231.389V189.416H226.673V209ZM234.844 209H239.56V181.748H234.844V209ZM243.014 187.22H247.73V182.18H243.014V187.22ZM243.014 209H247.73V189.416H243.014V209ZM257.124 209.432C259.668 209.432 261.708 208.592 263.244 206.912V209H267.708V195.968C267.708 194.6 267.36 193.388 266.664 192.332C265.968 191.276 265.008 190.46 263.784 189.884C262.584 189.284 261.18 188.984 259.572 188.984C257.604 188.984 255.852 189.452 254.316 190.388C252.78 191.324 251.724 192.56 251.148 194.096L255 195.968C255.36 195.08 255.924 194.372 256.692 193.844C257.46 193.292 258.36 193.016 259.392 193.016C260.472 193.016 261.336 193.304 261.984 193.88C262.656 194.432 262.992 195.128 262.992 195.968V196.616L257.16 197.552C254.856 197.936 253.152 198.668 252.048 199.748C250.944 200.828 250.392 202.184 250.392 203.816C250.392 205.544 251.004 206.912 252.228 207.92C253.452 208.928 255.084 209.432 257.124 209.432ZM255.288 203.636C255.288 202.268 256.212 201.404 258.06 201.044L262.992 200.216V201.008C262.992 202.352 262.524 203.492 261.588 204.428C260.676 205.364 259.476 205.832 257.988 205.832C257.196 205.832 256.548 205.64 256.044 205.256C255.54 204.848 255.288 204.308 255.288 203.636ZM271.167 209H275.883V198.092C275.883 196.604 276.291 195.452 277.107 194.636C277.947 193.796 279.027 193.376 280.347 193.376H282.039V189.2H280.887C279.687 189.2 278.631 189.416 277.719 189.848C276.807 190.28 276.099 191.06 275.595 192.188V189.416H271.167V209ZM294.162 209H298.338L302.946 195.788L307.482 209H311.694L318.426 189.416H313.458L309.354 201.728L305.034 189.416H300.858L296.502 201.764L292.398 189.416H287.43L294.162 209ZM320.112 187.22H324.828V182.18H320.112V187.22ZM320.112 209H324.828V189.416H320.112V209ZM337.21 209.216C338.002 209.216 338.782 209.156 339.55 209.036V204.968C339.094 205.04 338.674 205.076 338.29 205.076C337.138 205.076 336.298 204.812 335.77 204.284C335.242 203.756 334.978 203 334.978 202.016V193.628H339.478V189.416H334.978V184.952H330.262V186.464C330.262 187.424 329.998 188.156 329.47 188.66C328.942 189.164 328.198 189.416 327.238 189.416H326.878V193.628H330.262V202.268C330.262 204.452 330.862 206.156 332.062 207.38C333.286 208.604 335.002 209.216 337.21 209.216ZM342.253 209H346.969V197.516C346.969 196.244 347.341 195.224 348.085 194.456C348.829 193.688 349.777 193.304 350.929 193.304C352.081 193.304 353.029 193.688 353.773 194.456C354.517 195.2 354.889 196.22 354.889 197.516V209H359.605V196.4C359.605 194.936 359.293 193.652 358.669 192.548C358.045 191.42 357.169 190.544 356.041 189.92C354.937 189.296 353.665 188.984 352.225 188.984C351.097 188.984 350.077 189.188 349.165 189.596C348.253 189.98 347.521 190.568 346.969 191.36V181.748H342.253V209ZM93.432 254H98.364V242.084L107.364 227.18H101.784L95.88 237.152L89.976 227.18H84.396L93.432 242.12V254ZM115.298 254.432C117.194 254.432 118.922 254 120.482 253.136C122.042 252.248 123.29 251.036 124.226 249.5C125.162 247.94 125.63 246.176 125.63 244.208C125.63 242.24 125.162 240.488 124.226 238.952C123.314 237.416 122.078 236.204 120.518 235.316C118.958 234.428 117.218 233.984 115.298 233.984C113.354 233.984 111.602 234.428 110.042 235.316C108.482 236.204 107.234 237.416 106.298 238.952C105.386 240.488 104.93 242.24 104.93 244.208C104.93 246.176 105.386 247.928 106.298 249.464C107.234 251 108.482 252.212 110.042 253.1C111.626 253.988 113.378 254.432 115.298 254.432ZM115.298 250.112C114.242 250.112 113.294 249.86 112.454 249.356C111.638 248.852 110.99 248.156 110.51 247.268C110.054 246.356 109.826 245.336 109.826 244.208C109.826 243.08 110.054 242.072 110.51 241.184C110.99 240.296 111.638 239.6 112.454 239.096C113.294 238.568 114.242 238.304 115.298 238.304C116.354 238.304 117.278 238.568 118.07 239.096C118.886 239.6 119.522 240.296 119.978 241.184C120.458 242.072 120.698 243.08 120.698 244.208C120.698 245.336 120.458 246.356 119.978 247.268C119.522 248.156 118.886 248.852 118.07 249.356C117.278 249.86 116.354 250.112 115.298 250.112ZM135.29 254.432C136.514 254.432 137.594 254.204 138.53 253.748C139.49 253.268 140.246 252.572 140.798 251.66V254H145.262V234.416H140.546V245.9C140.546 247.196 140.174 248.228 139.43 248.996C138.686 249.74 137.738 250.112 136.586 250.112C135.41 250.112 134.45 249.74 133.706 248.996C132.986 248.252 132.626 247.256 132.626 246.008V234.416H127.91V246.404C127.91 248.804 128.558 250.748 129.854 252.236C131.174 253.7 132.986 254.432 135.29 254.432ZM148.746 254H153.462V243.092C153.462 241.604 153.87 240.452 154.686 239.636C155.526 238.796 156.606 238.376 157.926 238.376H159.618V234.2H158.466C157.266 234.2 156.21 234.416 155.298 234.848C154.386 235.28 153.678 236.06 153.174 237.188V234.416H148.746V254ZM174.369 254H179.985L189.309 227.18H183.981L177.177 247.808L170.337 227.18H165.009L174.369 254ZM198.794 254.432C200.69 254.432 202.418 254 203.978 253.136C205.538 252.248 206.786 251.036 207.722 249.5C208.658 247.94 209.126 246.176 209.126 244.208C209.126 242.24 208.658 240.488 207.722 238.952C206.81 237.416 205.574 236.204 204.014 235.316C202.454 234.428 200.714 233.984 198.794 233.984C196.85 233.984 195.098 234.428 193.538 235.316C191.978 236.204 190.73 237.416 189.794 238.952C188.882 240.488 188.426 242.24 188.426 244.208C188.426 246.176 188.882 247.928 189.794 249.464C190.73 251 191.978 252.212 193.538 253.1C195.122 253.988 196.874 254.432 198.794 254.432ZM198.794 250.112C197.738 250.112 196.79 249.86 195.95 249.356C195.134 248.852 194.486 248.156 194.006 247.268C193.55 246.356 193.322 245.336 193.322 244.208C193.322 243.08 193.55 242.072 194.006 241.184C194.486 240.296 195.134 239.6 195.95 239.096C196.79 238.568 197.738 238.304 198.794 238.304C199.85 238.304 200.774 238.568 201.566 239.096C202.382 239.6 203.018 240.296 203.474 241.184C203.954 242.072 204.194 243.08 204.194 244.208C204.194 245.336 203.954 246.356 203.474 247.268C203.018 248.156 202.382 248.852 201.566 249.356C200.774 249.86 199.85 250.112 198.794 250.112ZM221.234 254.432C222.65 254.432 223.958 254.192 225.158 253.712C226.358 253.208 227.39 252.524 228.254 251.66C229.118 250.772 229.742 249.776 230.126 248.672L225.986 246.8C225.602 247.832 224.99 248.648 224.15 249.248C223.334 249.824 222.362 250.112 221.234 250.112C220.202 250.112 219.278 249.86 218.462 249.356C217.67 248.852 217.046 248.156 216.59 247.268C216.134 246.356 215.906 245.336 215.906 244.208C215.906 243.056 216.134 242.036 216.59 241.148C217.046 240.26 217.67 239.564 218.462 239.06C219.278 238.556 220.202 238.304 221.234 238.304C222.362 238.304 223.334 238.604 224.15 239.204C224.99 239.804 225.602 240.596 225.986 241.58L230.126 239.78C229.718 238.628 229.082 237.62 228.218 236.756C227.354 235.868 226.322 235.184 225.122 234.704C223.922 234.224 222.626 233.984 221.234 233.984C219.29 233.984 217.538 234.428 215.978 235.316C214.442 236.204 213.23 237.416 212.342 238.952C211.454 240.488 211.01 242.228 211.01 244.172C211.01 246.116 211.454 247.868 212.342 249.428C213.23 250.964 214.442 252.188 215.978 253.1C217.538 253.988 219.29 254.432 221.234 254.432ZM238.639 254.432C241.183 254.432 243.223 253.592 244.759 251.912V254H249.223V240.968C249.223 239.6 248.875 238.388 248.179 237.332C247.483 236.276 246.523 235.46 245.299 234.884C244.099 234.284 242.695 233.984 241.087 233.984C239.119 233.984 237.367 234.452 235.831 235.388C234.295 236.324 233.239 237.56 232.663 239.096L236.515 240.968C236.875 240.08 237.439 239.372 238.207 238.844C238.975 238.292 239.875 238.016 240.907 238.016C241.987 238.016 242.851 238.304 243.499 238.88C244.171 239.432 244.507 240.128 244.507 240.968V241.616L238.675 242.552C236.371 242.936 234.667 243.668 233.563 244.748C232.459 245.828 231.907 247.184 231.907 248.816C231.907 250.544 232.519 251.912 233.743 252.92C234.967 253.928 236.599 254.432 238.639 254.432ZM236.803 248.636C236.803 247.268 237.727 246.404 239.575 246.044L244.507 245.216V246.008C244.507 247.352 244.039 248.492 243.103 249.428C242.191 250.364 240.991 250.832 239.503 250.832C238.711 250.832 238.063 250.64 237.559 250.256C237.055 249.848 236.803 249.308 236.803 248.636ZM263.374 254.432C265.27 254.432 266.962 253.988 268.45 253.1C269.938 252.188 271.114 250.964 271.978 249.428C272.842 247.868 273.274 246.128 273.274 244.208C273.274 242.288 272.842 240.56 271.978 239.024C271.114 237.464 269.938 236.24 268.45 235.352C266.962 234.44 265.282 233.984 263.41 233.984C260.866 233.984 258.862 234.788 257.398 236.396V226.748H252.682V254H257.11V251.804C257.83 252.644 258.73 253.292 259.81 253.748C260.914 254.204 262.102 254.432 263.374 254.432ZM262.834 250.112C261.802 250.112 260.866 249.86 260.026 249.356C259.21 248.852 258.562 248.156 258.082 247.268C257.626 246.38 257.398 245.36 257.398 244.208C257.398 243.056 257.626 242.036 258.082 241.148C258.562 240.26 259.21 239.564 260.026 239.06C260.866 238.556 261.802 238.304 262.834 238.304C263.914 238.304 264.862 238.568 265.678 239.096C266.518 239.6 267.178 240.296 267.658 241.184C268.138 242.072 268.378 243.08 268.378 244.208C268.378 245.336 268.138 246.356 267.658 247.268C267.178 248.156 266.518 248.852 265.678 249.356C264.862 249.86 263.914 250.112 262.834 250.112ZM278.201 254H282.953V248.96H278.201V254Z" fill="black"/>
<path d="M84.656 334V324.032H85.536L88 328.912L90.512 324.016H91.36V334H90.304V326.48L88.144 330.496H87.712L85.696 326.528V334H84.656ZM98.4 334.176C97.2587 334.176 96.3787 333.733 95.76 332.848C95.1413 331.963 94.832 330.704 94.832 329.072C94.832 327.493 95.1413 326.251 95.76 325.344C96.3787 324.427 97.2587 323.968 98.4 323.968C99.5413 323.968 100.421 324.427 101.04 325.344C101.659 326.251 101.968 327.493 101.968 329.072C101.968 330.704 101.659 331.963 101.04 332.848C100.421 333.733 99.5413 334.176 98.4 334.176ZM98.4 333.2C99.1573 333.2 99.7493 332.843 100.176 332.128C100.603 331.413 100.816 330.395 100.816 329.072C100.816 327.813 100.603 326.811 100.176 326.064C99.7493 325.317 99.1573 324.944 98.4 324.944C97.6427 324.944 97.0507 325.317 96.624 326.064C96.1973 326.811 95.984 327.813 95.984 329.072C95.984 330.395 96.1973 331.413 96.624 332.128C97.0507 332.843 97.6427 333.2 98.4 333.2ZM105.664 334.016V324.032H107.984C108.837 324.032 109.499 324.149 109.968 324.384C110.448 324.619 110.853 324.955 111.184 325.392C111.835 326.267 112.16 327.493 112.16 329.072C112.117 330.085 111.947 330.965 111.648 331.712C111.36 332.448 110.901 333.019 110.272 333.424C109.653 333.819 108.827 334.016 107.792 334.016H105.664ZM106.72 333.136H107.744C108.885 333.136 109.723 332.795 110.256 332.112C110.789 331.419 111.051 330.427 111.04 329.136C111.029 327.835 110.784 326.816 110.304 326.08C109.835 325.344 109.04 324.976 107.92 324.976H106.72V333.136ZM119.216 334.176C118.149 334.176 117.344 333.861 116.8 333.232C116.267 332.592 116 331.701 116 330.56V324.032H117.248V324.144C117.184 324.208 117.141 324.277 117.12 324.352C117.109 324.427 117.104 324.555 117.104 324.736V330.576C117.104 331.387 117.259 332.032 117.568 332.512C117.888 332.992 118.443 333.232 119.232 333.232C120.032 333.232 120.592 332.992 120.912 332.512C121.232 332.032 121.392 331.371 121.392 330.528V324.032H122.464V330.512C122.464 331.771 122.165 332.699 121.568 333.296C120.981 333.883 120.197 334.176 119.216 334.176ZM126.656 324.032H127.968V324.144C127.904 324.208 127.861 324.277 127.84 324.352C127.829 324.427 127.824 324.555 127.824 324.736V333.04H132.624V334H126.656V324.032ZM136.944 334V324.016H143.056V325.008H138V328.288H142.176V329.312H138V333.008H143.008V334H136.944ZM150.352 334.16C149.061 334.16 148.021 333.739 147.232 332.896L147.808 331.888L147.872 331.744L147.984 331.808C148.005 331.883 148.032 331.968 148.064 332.064C148.096 332.149 148.171 332.256 148.288 332.384C148.565 332.619 148.885 332.805 149.248 332.944C149.621 333.083 150.043 333.152 150.512 333.152C151.109 333.152 151.6 332.987 151.984 332.656C152.379 332.315 152.576 331.909 152.576 331.44C152.576 331.131 152.512 330.869 152.384 330.656C152.267 330.443 152.043 330.235 151.712 330.032C151.392 329.829 150.917 329.595 150.288 329.328C149.253 328.923 148.539 328.469 148.144 327.968C147.749 327.467 147.552 326.933 147.552 326.368C147.552 325.632 147.824 325.04 148.368 324.592C148.912 324.133 149.653 323.904 150.592 323.904C151.136 323.904 151.648 324.016 152.128 324.24C152.608 324.453 153.019 324.757 153.36 325.152L152.64 326.112L152.544 326.048C152.533 325.963 152.512 325.877 152.48 325.792C152.448 325.707 152.373 325.6 152.256 325.472C152 325.227 151.728 325.061 151.44 324.976C151.152 324.88 150.811 324.832 150.416 324.832C149.893 324.832 149.477 324.976 149.168 325.264C148.859 325.552 148.704 325.893 148.704 326.288C148.704 326.587 148.768 326.853 148.896 327.088C149.035 327.312 149.28 327.536 149.632 327.76C149.984 327.984 150.496 328.229 151.168 328.496C151.819 328.763 152.325 329.035 152.688 329.312C153.051 329.579 153.307 329.872 153.456 330.192C153.605 330.501 153.68 330.864 153.68 331.28C153.68 331.739 153.563 332.192 153.328 332.64C153.104 333.077 152.747 333.44 152.256 333.728C151.765 334.016 151.131 334.16 150.352 334.16Z" fill="#777777"/>
<circle cx="166.25" cy="329.25" r="6.25" fill="black"/>
<path d="M166.612 331.807C166.419 332.14 165.938 332.14 165.746 331.807L163.581 328.057C163.388 327.723 163.629 327.307 164.014 327.307H168.344C168.729 327.307 168.969 327.723 168.777 328.057L166.612 331.807Z" fill="white"/>
<rect x="84" y="355" width="285" height="55" rx="9" fill="#E4F0F9"/>
<rect x="101" y="391" width="60" height="10" rx="3" fill="#D5E8F6"/>
<rect x="101" y="367" width="182" height="16" rx="3" fill="#C0DCF1"/>
<circle cx="335" cy="383" r="15" fill="#C0DCF1"/>
<path d="M341.07 382.139C342.227 382.677 342.227 384.323 341.07 384.861L332.132 389.01C331.137 389.472 330 388.746 330 387.65V379.35C330 378.254 331.137 377.528 332.132 377.99L341.07 382.139Z" fill="#D5E8F6"/>
<rect x="84" y="430" width="285" height="55" rx="9" fill="#E4F0F9"/>
<rect x="101" y="466" width="60" height="10" rx="3" fill="#D5E8F6"/>
<rect x="101" y="442" width="182" height="16" rx="3" fill="#C0DCF1"/>
<circle cx="335" cy="458" r="15" fill="#C0DCF1"/>
<path d="M341.07 457.139C342.227 457.677 342.227 459.323 341.07 459.861L332.132 464.01C331.137 464.472 330 463.746 330 462.65V454.35C330 453.254 331.137 452.528 332.132 452.99L341.07 457.139Z" fill="#D5E8F6"/>
<rect x="84" y="508" width="285" height="55" rx="9" fill="#E4F0F9"/>
<rect x="84" y="508" width="285" height="55" rx="9" fill="#E4F0F9"/>
<rect x="101" y="544" width="60" height="10" rx="3" fill="#D5E8F6"/>
<rect x="101" y="520" width="182" height="16" rx="3" fill="#C0DCF1"/>
<circle cx="335" cy="536" r="15" fill="#C0DCF1"/>
<path d="M341.07 535.139C342.227 535.677 342.227 537.323 341.07 537.861L332.132 542.01C331.137 542.472 330 541.746 330 540.65V532.35C330 531.254 331.137 530.528 332.132 530.99L341.07 535.139Z" fill="#D5E8F6"/>
<rect x="88" y="581" width="285" height="55" rx="9" fill="#E4F0F9"/>
<rect x="88" y="581" width="285" height="55" rx="9" fill="#E4F0F9"/>
<rect x="105" y="617" width="60" height="10" rx="3" fill="#D5E8F6"/>
<rect x="105" y="593" width="182" height="16" rx="3" fill="#C0DCF1"/>
<circle cx="339" cy="609" r="15" fill="#C0DCF1"/>
<path d="M345.07 608.139C346.227 608.677 346.227 610.323 345.07 610.861L336.132 615.01C335.137 615.472 334 614.746 334 613.65V605.35C334 604.254 335.137 603.528 336.132 603.99L345.07 608.139Z" fill="#D5E8F6"/>
<rect x="84" y="659" width="285" height="55" rx="9" fill="#E4F0F9"/>
<rect x="84" y="659" width="285" height="55" rx="9" fill="#E4F0F9"/>
<rect x="101" y="695" width="60" height="10" rx="3" fill="#D5E8F6"/>
<rect x="101" y="671" width="182" height="16" rx="3" fill="#C0DCF1"/>
<circle cx="335" cy="687" r="15" fill="#C0DCF1"/>
<path d="M341.07 686.139C342.227 686.677 342.227 688.323 341.07 688.861L332.132 693.01C331.137 693.472 330 692.746 330 691.65V683.35C330 682.254 331.137 681.528 332.132 681.99L341.07 686.139Z" fill="#D5E8F6"/>
<defs>
<filter id="filter0_f" x="0.903572" y="0.346443" width="591.449" height="985.667" filterUnits="userSpaceOnUse" color-interpolation-filters="sRGB">
<feFlood flood-opacity="0" result="BackgroundImageFix"/>
<feBlend mode="normal" in="SourceGraphic" in2="BackgroundImageFix" result="shape"/>
<feGaussianBlur stdDeviation="53.0065" result="effect1_foregroundBlur"/>
</filter>
<filter id="filter1_iiii" x="39" y="25" width="401.423" height="783.641" filterUnits="userSpaceOnUse" color-interpolation-filters="sRGB">
<feFlood flood-opacity="0" result="BackgroundImageFix"/>
<feBlend mode="normal" in="SourceGraphic" in2="BackgroundImageFix" result="shape"/>
<feColorMatrix in="SourceAlpha" type="matrix" values="0 0 0 0 0 0 0 0 0 0 0 0 0 0 0 0 0 0 127 0" result="hardAlpha"/>
<feOffset dx="-7" dy="-10"/>
<feGaussianBlur stdDeviation="17"/>
<feComposite in2="hardAlpha" operator="arithmetic" k2="-1" k3="1"/>
<feColorMatrix type="matrix" values="0 0 0 0 0.723942 0 0 0 0 0.82367 0 0 0 0 0.900384 0 0 0 1 0"/>
<feBlend mode="normal" in2="shape" result="effect1_innerShadow"/>
<feColorMatrix in="SourceAlpha" type="matrix" values="0 0 0 0 0 0 0 0 0 0 0 0 0 0 0 0 0 0 127 0" result="hardAlpha"/>
<feOffset dy="-4"/>
<feGaussianBlur stdDeviation="2.5"/>
<feComposite in2="hardAlpha" operator="arithmetic" k2="-1" k3="1"/>
<feColorMatrix type="matrix" values="0 0 0 0 0.72365 0 0 0 0 0.802707 0 0 0 0 0.869601 0 0 0 1 0"/>
<feBlend mode="normal" in2="effect1_innerShadow" result="effect2_innerShadow"/>
<feColorMatrix in="SourceAlpha" type="matrix" values="0 0 0 0 0 0 0 0 0 0 0 0 0 0 0 0 0 0 127 0" result="hardAlpha"/>
<feMorphology radius="3" operator="erode" in="SourceAlpha" result="effect3_innerShadow"/>
<feOffset dx="15"/>
<feGaussianBlur stdDeviation="6"/>
<feComposite in2="hardAlpha" operator="arithmetic" k2="-1" k3="1"/>
<feColorMatrix type="matrix" values="0 0 0 0 1 0 0 0 0 1 0 0 0 0 1 0 0 0 1 0"/>
<feBlend mode="normal" in2="effect2_innerShadow" result="effect3_innerShadow"/>
<feColorMatrix in="SourceAlpha" type="matrix" values="0 0 0 0 0 0 0 0 0 0 0 0 0 0 0 0 0 0 127 0" result="hardAlpha"/>
<feOffset dx="-6" dy="-4"/>
<feGaussianBlur stdDeviation="8"/>
<feComposite in2="hardAlpha" operator="arithmetic" k2="-1" k3="1"/>
<feColorMatrix type="matrix" values="0 0 0 0 0.692166 0 0 0 0 0.809201 0 0 0 0 0.895705 0 0 0 1 0"/>
<feBlend mode="normal" in2="effect3_innerShadow" result="effect4_innerShadow"/>
</filter>
<linearGradient id="paint0_linear" x1="107.434" y1="285.526" x2="107.434" y2="808.641" gradientUnits="userSpaceOnUse">
<stop stop-color="white"/>
<stop offset="1" stop-color="#EEF4FA"/>
</linearGradient>
</defs>
</svg>
