<svg width="355" height="38" viewBox="0 0 355 38" fill="none" xmlns="http://www.w3.org/2000/svg">
<path d="M38.16 31H47.58C50.08 31 52.03 30.4 53.43 29.2C54.85 27.98 55.56 26.3 55.56 24.16C55.56 23.14 55.36 22.18 54.96 21.28C54.56 20.38 53.86 19.61 52.86 18.97C53.48 18.41 53.93 17.79 54.21 17.11C54.51 16.43 54.66 15.71 54.66 14.95C54.66 12.99 54.03 11.45 52.77 10.33C51.51 9.21 49.78 8.65 47.58 8.65H38.16V31ZM42.24 17.32V12.13H47.79C48.63 12.13 49.3 12.36 49.8 12.82C50.3 13.28 50.55 13.9 50.55 14.68C50.55 15.46 50.3 16.1 49.8 16.6C49.3 17.08 48.63 17.32 47.79 17.32H42.24ZM42.24 27.4V20.89H48C49.06 20.89 49.9 21.19 50.52 21.79C51.16 22.37 51.48 23.16 51.48 24.16C51.48 25.14 51.16 25.93 50.52 26.53C49.9 27.11 49.06 27.4 48 27.4H42.24ZM57.8222 31H61.7522V8.29H57.8222V31ZM70.4508 31.36C71.4708 31.36 72.3708 31.17 73.1508 30.79C73.9508 30.39 74.5808 29.81 75.0408 29.05V31H78.7608V14.68H74.8308V24.25C74.8308 25.33 74.5208 26.19 73.9008 26.83C73.2808 27.45 72.4908 27.76 71.5308 27.76C70.5508 27.76 69.7508 27.45 69.1308 26.83C68.5308 26.21 68.2308 25.38 68.2308 24.34V14.68H64.3008V24.67C64.3008 26.67 64.8408 28.29 65.9208 29.53C67.0208 30.75 68.5308 31.36 70.4508 31.36ZM89.404 31.36C91.064 31.36 92.514 30.99 93.754 30.25C95.014 29.49 95.894 28.53 96.394 27.37L93.214 25.81C92.854 26.43 92.354 26.94 91.714 27.34C91.094 27.72 90.334 27.91 89.434 27.91C88.254 27.91 87.264 27.55 86.464 26.83C85.664 26.11 85.204 25.15 85.084 23.95H96.844C96.924 23.73 96.974 23.48 96.994 23.2C97.034 22.9 97.054 22.6 97.054 22.3C97.054 20.84 96.744 19.51 96.124 18.31C95.504 17.11 94.604 16.15 93.424 15.43C92.244 14.69 90.804 14.32 89.104 14.32C87.584 14.32 86.204 14.69 84.964 15.43C83.744 16.17 82.774 17.18 82.054 18.46C81.354 19.72 81.004 21.17 81.004 22.81C81.004 24.39 81.354 25.83 82.054 27.13C82.754 28.43 83.734 29.46 84.994 30.22C86.254 30.98 87.724 31.36 89.404 31.36ZM89.104 17.56C90.144 17.56 91.004 17.88 91.684 18.52C92.384 19.14 92.774 19.95 92.854 20.95H85.174C85.394 19.87 85.854 19.04 86.554 18.46C87.274 17.86 88.124 17.56 89.104 17.56ZM108.193 31.36C109.773 31.36 111.183 30.99 112.423 30.25C113.663 29.49 114.643 28.47 115.363 27.19C116.083 25.89 116.443 24.44 116.443 22.84C116.443 21.24 116.083 19.8 115.363 18.52C114.643 17.22 113.663 16.2 112.423 15.46C111.183 14.7 109.783 14.32 108.223 14.32C106.103 14.32 104.433 14.99 103.213 16.33V8.29H99.2831V31H102.973V29.17C103.573 29.87 104.323 30.41 105.223 30.79C106.143 31.17 107.133 31.36 108.193 31.36ZM107.743 27.76C106.883 27.76 106.103 27.55 105.403 27.13C104.723 26.71 104.183 26.13 103.783 25.39C103.403 24.65 103.213 23.8 103.213 22.84C103.213 21.88 103.403 21.03 103.783 20.29C104.183 19.55 104.723 18.97 105.403 18.55C106.103 18.13 106.883 17.92 107.743 17.92C108.643 17.92 109.433 18.14 110.113 18.58C110.813 19 111.363 19.58 111.763 20.32C112.163 21.06 112.363 21.9 112.363 22.84C112.363 23.78 112.163 24.63 111.763 25.39C111.363 26.13 110.813 26.71 110.113 27.13C109.433 27.55 108.643 27.76 107.743 27.76ZM126.669 31.36C128.249 31.36 129.689 31 130.989 30.28C132.289 29.54 133.329 28.53 134.109 27.25C134.889 25.95 135.279 24.48 135.279 22.84C135.279 21.2 134.889 19.74 134.109 18.46C133.349 17.18 132.319 16.17 131.019 15.43C129.719 14.69 128.269 14.32 126.669 14.32C125.049 14.32 123.589 14.69 122.289 15.43C120.989 16.17 119.949 17.18 119.169 18.46C118.409 19.74 118.029 21.2 118.029 22.84C118.029 24.48 118.409 25.94 119.169 27.22C119.949 28.5 120.989 29.51 122.289 30.25C123.609 30.99 125.069 31.36 126.669 31.36ZM126.669 27.76C125.789 27.76 124.999 27.55 124.299 27.13C123.619 26.71 123.079 26.13 122.679 25.39C122.299 24.63 122.109 23.78 122.109 22.84C122.109 21.9 122.299 21.06 122.679 20.32C123.079 19.58 123.619 19 124.299 18.58C124.999 18.14 125.789 17.92 126.669 17.92C127.549 17.92 128.319 18.14 128.979 18.58C129.659 19 130.189 19.58 130.569 20.32C130.969 21.06 131.169 21.9 131.169 22.84C131.169 23.78 130.969 24.63 130.569 25.39C130.189 26.13 129.659 26.71 128.979 27.13C128.319 27.55 127.549 27.76 126.669 27.76ZM137.51 31H141.44V21.43C141.44 20.37 141.74 19.52 142.34 18.88C142.96 18.24 143.76 17.92 144.74 17.92C145.72 17.92 146.51 18.24 147.11 18.88C147.73 19.5 148.04 20.35 148.04 21.43V31H151.97V20.5C151.97 19.28 151.71 18.21 151.19 17.29C150.67 16.35 149.94 15.62 149 15.1C148.08 14.58 147.02 14.32 145.82 14.32C144.8 14.32 143.88 14.52 143.06 14.92C142.26 15.32 141.64 15.91 141.2 16.69V14.68H137.51V31ZM154.543 31H158.473V21.43C158.473 20.37 158.773 19.52 159.373 18.88C159.993 18.24 160.793 17.92 161.773 17.92C162.753 17.92 163.543 18.24 164.143 18.88C164.763 19.5 165.073 20.35 165.073 21.43V31H169.003V20.5C169.003 19.28 168.743 18.21 168.223 17.29C167.703 16.35 166.973 15.62 166.033 15.1C165.113 14.58 164.053 14.32 162.853 14.32C161.833 14.32 160.913 14.52 160.093 14.92C159.293 15.32 158.673 15.91 158.233 16.69V14.68H154.543V31ZM179.316 31.36C180.976 31.36 182.426 30.99 183.666 30.25C184.926 29.49 185.806 28.53 186.306 27.37L183.126 25.81C182.766 26.43 182.266 26.94 181.626 27.34C181.006 27.72 180.246 27.91 179.346 27.91C178.166 27.91 177.176 27.55 176.376 26.83C175.576 26.11 175.116 25.15 174.996 23.95H186.756C186.836 23.73 186.886 23.48 186.906 23.2C186.946 22.9 186.966 22.6 186.966 22.3C186.966 20.84 186.656 19.51 186.036 18.31C185.416 17.11 184.516 16.15 183.336 15.43C182.156 14.69 180.716 14.32 179.016 14.32C177.496 14.32 176.116 14.69 174.876 15.43C173.656 16.17 172.686 17.18 171.966 18.46C171.266 19.72 170.916 21.17 170.916 22.81C170.916 24.39 171.266 25.83 171.966 27.13C172.666 28.43 173.646 29.46 174.906 30.22C176.166 30.98 177.636 31.36 179.316 31.36ZM179.016 17.56C180.056 17.56 180.916 17.88 181.596 18.52C182.296 19.14 182.686 19.95 182.766 20.95H175.086C175.306 19.87 175.766 19.04 176.466 18.46C177.186 17.86 178.036 17.56 179.016 17.56ZM196.635 31.18C197.295 31.18 197.945 31.13 198.585 31.03V27.64C198.205 27.7 197.855 27.73 197.535 27.73C196.575 27.73 195.875 27.51 195.435 27.07C194.995 26.63 194.775 26 194.775 25.18V18.19H198.525V14.68H194.775V10.96H190.845V12.22C190.845 13.02 190.625 13.63 190.185 14.05C189.745 14.47 189.125 14.68 188.325 14.68H188.025V18.19H190.845V25.39C190.845 27.21 191.345 28.63 192.345 29.65C193.365 30.67 194.795 31.18 196.635 31.18ZM216.25 31.36C217.85 31.36 219.28 31.09 220.54 30.55C221.82 30.01 222.9 29.3 223.78 28.42C224.66 27.52 225.29 26.54 225.67 25.48L222.01 23.77C221.57 24.89 220.85 25.82 219.85 26.56C218.87 27.28 217.67 27.64 216.25 27.64C214.85 27.64 213.62 27.31 212.56 26.65C211.5 25.99 210.67 25.08 210.07 23.92C209.47 22.74 209.17 21.37 209.17 19.81C209.17 18.25 209.47 16.89 210.07 15.73C210.67 14.55 211.5 13.64 212.56 13C213.62 12.34 214.85 12.01 216.25 12.01C217.67 12.01 218.87 12.38 219.85 13.12C220.85 13.84 221.57 14.76 222.01 15.88L225.67 14.17C225.29 13.11 224.66 12.14 223.78 11.26C222.9 10.36 221.82 9.64 220.54 9.1C219.28 8.56 217.85 8.29 216.25 8.29C214.65 8.29 213.17 8.58 211.81 9.16C210.45 9.72 209.27 10.52 208.27 11.56C207.27 12.58 206.49 13.8 205.93 15.22C205.37 16.62 205.09 18.15 205.09 19.81C205.09 21.47 205.37 23.01 205.93 24.43C206.49 25.83 207.27 27.05 208.27 28.09C209.27 29.13 210.45 29.94 211.81 30.52C213.17 31.08 214.65 31.36 216.25 31.36ZM227.902 31H231.832V8.29H227.902V31ZM239.661 31.36C241.781 31.36 243.481 30.66 244.761 29.26V31H248.481V20.14C248.481 19 248.191 17.99 247.611 17.11C247.031 16.23 246.231 15.55 245.211 15.07C244.211 14.57 243.041 14.32 241.701 14.32C240.061 14.32 238.601 14.71 237.321 15.49C236.041 16.27 235.161 17.3 234.681 18.58L237.891 20.14C238.191 19.4 238.661 18.81 239.301 18.37C239.941 17.91 240.691 17.68 241.551 17.68C242.451 17.68 243.171 17.92 243.711 18.4C244.271 18.86 244.551 19.44 244.551 20.14V20.68L239.691 21.46C237.771 21.78 236.351 22.39 235.431 23.29C234.511 24.19 234.051 25.32 234.051 26.68C234.051 28.12 234.561 29.26 235.581 30.1C236.601 30.94 237.961 31.36 239.661 31.36ZM238.131 26.53C238.131 25.39 238.901 24.67 240.441 24.37L244.551 23.68V24.34C244.551 25.46 244.161 26.41 243.381 27.19C242.621 27.97 241.621 28.36 240.381 28.36C239.721 28.36 239.181 28.2 238.761 27.88C238.341 27.54 238.131 27.09 238.131 26.53ZM257.573 31.36C258.813 31.36 259.893 31.15 260.813 30.73C261.733 30.31 262.453 29.73 262.973 28.99C263.493 28.23 263.753 27.36 263.753 26.38C263.753 25.24 263.393 24.26 262.673 23.44C261.953 22.62 260.913 22.02 259.553 21.64L256.943 20.86C256.383 20.7 255.923 20.49 255.563 20.23C255.203 19.97 255.023 19.61 255.023 19.15C255.023 18.67 255.213 18.28 255.593 17.98C255.973 17.68 256.493 17.53 257.153 17.53C257.973 17.53 258.713 17.75 259.373 18.19C260.053 18.63 260.523 19.22 260.783 19.96L263.783 18.55C263.283 17.23 262.443 16.2 261.263 15.46C260.083 14.7 258.723 14.32 257.183 14.32C256.003 14.32 254.953 14.53 254.033 14.95C253.133 15.37 252.423 15.96 251.903 16.72C251.403 17.46 251.153 18.33 251.153 19.33C251.153 20.45 251.503 21.42 252.203 22.24C252.923 23.06 253.973 23.67 255.353 24.07L258.023 24.82C258.543 24.96 258.983 25.17 259.343 25.45C259.723 25.71 259.913 26.07 259.913 26.53C259.913 27.07 259.693 27.5 259.253 27.82C258.833 28.12 258.273 28.27 257.573 28.27C256.653 28.27 255.823 28.01 255.083 27.49C254.343 26.97 253.753 26.25 253.313 25.33L250.373 26.74C250.853 28.14 251.733 29.26 253.013 30.1C254.313 30.94 255.833 31.36 257.573 31.36ZM272.233 31.36C273.473 31.36 274.553 31.15 275.473 30.73C276.393 30.31 277.113 29.73 277.633 28.99C278.153 28.23 278.413 27.36 278.413 26.38C278.413 25.24 278.053 24.26 277.333 23.44C276.613 22.62 275.573 22.02 274.213 21.64L271.603 20.86C271.043 20.7 270.583 20.49 270.223 20.23C269.863 19.97 269.683 19.61 269.683 19.15C269.683 18.67 269.873 18.28 270.253 17.98C270.633 17.68 271.153 17.53 271.813 17.53C272.633 17.53 273.373 17.75 274.033 18.19C274.713 18.63 275.183 19.22 275.443 19.96L278.443 18.55C277.943 17.23 277.103 16.2 275.923 15.46C274.743 14.7 273.383 14.32 271.843 14.32C270.663 14.32 269.613 14.53 268.693 14.95C267.793 15.37 267.083 15.96 266.563 16.72C266.063 17.46 265.813 18.33 265.813 19.33C265.813 20.45 266.163 21.42 266.863 22.24C267.583 23.06 268.633 23.67 270.013 24.07L272.683 24.82C273.203 24.96 273.643 25.17 274.003 25.45C274.383 25.71 274.573 26.07 274.573 26.53C274.573 27.07 274.353 27.5 273.913 27.82C273.493 28.12 272.933 28.27 272.233 28.27C271.313 28.27 270.483 28.01 269.743 27.49C269.003 26.97 268.413 26.25 267.973 25.33L265.033 26.74C265.513 28.14 266.393 29.26 267.673 30.1C268.973 30.94 270.493 31.36 272.233 31.36ZM280.684 31H284.614V21.91C284.614 20.67 284.954 19.71 285.634 19.03C286.334 18.33 287.234 17.98 288.334 17.98H289.744V14.5H288.784C287.784 14.5 286.904 14.68 286.144 15.04C285.384 15.4 284.794 16.05 284.374 16.99V14.68H280.684V31ZM299.134 31.36C300.714 31.36 302.154 31 303.454 30.28C304.754 29.54 305.794 28.53 306.574 27.25C307.354 25.95 307.744 24.48 307.744 22.84C307.744 21.2 307.354 19.74 306.574 18.46C305.814 17.18 304.784 16.17 303.484 15.43C302.184 14.69 300.734 14.32 299.134 14.32C297.514 14.32 296.054 14.69 294.754 15.43C293.454 16.17 292.414 17.18 291.634 18.46C290.874 19.74 290.494 21.2 290.494 22.84C290.494 24.48 290.874 25.94 291.634 27.22C292.414 28.5 293.454 29.51 294.754 30.25C296.074 30.99 297.534 31.36 299.134 31.36ZM299.134 27.76C298.254 27.76 297.464 27.55 296.764 27.13C296.084 26.71 295.544 26.13 295.144 25.39C294.764 24.63 294.574 23.78 294.574 22.84C294.574 21.9 294.764 21.06 295.144 20.32C295.544 19.58 296.084 19 296.764 18.58C297.464 18.14 298.254 17.92 299.134 17.92C300.014 17.92 300.784 18.14 301.444 18.58C302.124 19 302.654 19.58 303.034 20.32C303.434 21.06 303.634 21.9 303.634 22.84C303.634 23.78 303.434 24.63 303.034 25.39C302.654 26.13 302.124 26.71 301.444 27.13C300.784 27.55 300.014 27.76 299.134 27.76ZM317.955 31.36C319.535 31.36 320.975 31 322.275 30.28C323.575 29.54 324.615 28.53 325.395 27.25C326.175 25.95 326.565 24.48 326.565 22.84C326.565 21.2 326.175 19.74 325.395 18.46C324.635 17.18 323.605 16.17 322.305 15.43C321.005 14.69 319.555 14.32 317.955 14.32C316.335 14.32 314.875 14.69 313.575 15.43C312.275 16.17 311.235 17.18 310.455 18.46C309.695 19.74 309.315 21.2 309.315 22.84C309.315 24.48 309.695 25.94 310.455 27.22C311.235 28.5 312.275 29.51 313.575 30.25C314.895 30.99 316.355 31.36 317.955 31.36ZM317.955 27.76C317.075 27.76 316.285 27.55 315.585 27.13C314.905 26.71 314.365 26.13 313.965 25.39C313.585 24.63 313.395 23.78 313.395 22.84C313.395 21.9 313.585 21.06 313.965 20.32C314.365 19.58 314.905 19 315.585 18.58C316.285 18.14 317.075 17.92 317.955 17.92C318.835 17.92 319.605 18.14 320.265 18.58C320.945 19 321.475 19.58 321.855 20.32C322.255 21.06 322.455 21.9 322.455 22.84C322.455 23.78 322.255 24.63 321.855 25.39C321.475 26.13 320.945 26.71 320.265 27.13C319.605 27.55 318.835 27.76 317.955 27.76ZM328.795 31H332.725V21.43C332.725 20.37 333.015 19.52 333.595 18.88C334.175 18.24 334.935 17.92 335.875 17.92C336.835 17.92 337.595 18.24 338.155 18.88C338.735 19.5 339.025 20.35 339.025 21.43V31H342.955V21.43C342.955 20.37 343.245 19.52 343.825 18.88C344.405 18.24 345.165 17.92 346.105 17.92C347.065 17.92 347.825 18.24 348.385 18.88C348.965 19.5 349.255 20.35 349.255 21.43V31H353.185V20.5C353.185 19.28 352.915 18.21 352.375 17.29C351.855 16.35 351.145 15.62 350.245 15.1C349.345 14.58 348.315 14.32 347.155 14.32C346.075 14.32 345.095 14.54 344.215 14.98C343.355 15.42 342.645 16.08 342.085 16.96C341.605 16.16 340.915 15.52 340.015 15.04C339.135 14.56 338.145 14.32 337.045 14.32C336.025 14.32 335.115 14.52 334.315 14.92C333.515 15.32 332.905 15.92 332.485 16.72V14.68H328.795V31Z" fill="black"/>
<path d="M23.819 13.8385C22.6361 14.4052 21.3657 15.4248 20.0345 17.0791C19.2375 15.0987 17.953 12.9101 16.0124 10.5225C14.0717 12.9101 12.7876 15.0987 11.992 17.0791C10.6591 15.4248 9.38863 14.4052 8.20752 13.8385C8.55032 12.4796 9.13516 11.2199 10.0663 10.234C10.8932 9.35999 11.86 8.67881 12.7766 7.92882C13.4227 7.3943 14.0125 6.79566 14.5369 6.14215C15.0649 5.48465 15.461 4.60228 16.0132 4C16.5642 4.60228 16.9594 5.48421 17.4896 6.14215C18.014 6.79566 18.6038 7.3943 19.2499 7.92882C20.1665 8.67881 21.1333 9.35999 21.9602 10.234C22.8913 11.2199 23.4757 12.4805 23.819 13.8385Z" fill="#99CCFF"/>
<path d="M16.0266 30.2047C16.0266 30.0977 16.0266 29.9914 16.0266 29.8856C16.0266 29.9912 16.0266 30.0977 16.0266 30.2047C16.0266 30.2047 7.05908 24.4462 16.0266 12.843C16.0266 12.843 16.0266 12.868 16.0266 12.9228C16.0266 12.868 16.0266 12.843 16.0266 12.843C24.9945 24.4462 16.0266 30.2047 16.0266 30.2047Z" fill="#3366CC"/>
<path d="M30.5174 17.2159C29.1532 18.352 28.2229 19.8384 27.4132 21.4423C27.2812 21.7014 27.1545 21.9639 27.0286 22.2278C26.7615 22.7876 26.5006 23.3574 26.2392 23.9259C24.464 27.7609 21.6001 28.3606 19.9463 28.3531C19.8038 28.3531 19.6709 28.347 19.5503 28.3391C20.06 27.537 20.464 26.673 20.7525 25.7683V25.7683C21.3686 23.8343 21.5226 21.4388 20.6443 18.5795C20.7942 18.3577 20.9437 18.147 21.0927 17.9475C22.1752 16.4948 23.2177 15.619 24.1894 15.1421C27.8568 13.3401 30.5174 17.2159 30.5174 17.2159Z" fill="#3366CC"/>
<path d="M1.50684 17.2159C2.87101 18.3521 3.80173 19.8385 4.611 21.4424C4.74301 21.7014 4.87019 21.964 4.99605 22.2279C5.26316 22.7876 5.52192 23.3575 5.78551 23.926C7.5607 27.761 10.4246 28.3607 12.0783 28.3532C12.2209 28.3532 12.3538 28.3471 12.4744 28.3392C11.9641 27.5373 11.5595 26.6734 11.2704 25.7688C10.6565 23.8348 10.5003 21.4393 11.3786 18.58C11.2284 18.3582 11.079 18.1476 10.9302 17.948C9.84767 16.4953 8.80518 15.6195 7.83353 15.1426C4.16786 13.3402 1.50684 17.2159 1.50684 17.2159Z" fill="#3366CC"/>
<path d="M18.7837 29.3887C18.7837 29.3887 25.4426 31.4488 28.167 22.3113C28.167 22.3113 31.3979 21.6998 31.9999 24.3618C31.9999 24.3618 29.2438 25.8004 27.9769 29.8647C26.71 33.929 22.8854 34.6386 17.0635 30.9298C17.0613 30.9303 17.559 30.6278 18.7837 29.3887Z" fill="#003399"/>
<path d="M13.2162 29.3885C13.2162 29.3885 6.55729 31.4487 3.8329 22.3116C3.8329 22.3116 0.601998 21.7001 0 24.3621C0 24.3621 2.75608 25.8007 4.023 29.865C5.28992 33.9293 9.11446 34.6389 14.9386 30.9302C14.9386 30.9302 14.4409 30.6277 13.2162 29.3885Z" fill="#003399"/>
<path d="M20.9855 34C19.8264 34 18.8292 33.9947 17.6701 34H14.3547C13.1951 33.9947 12.1984 34 11.0393 34C12.7661 33.4091 14.5571 32.6381 16.012 31.3857C17.4677 32.6381 19.2587 33.4091 20.9855 34Z" fill="#3366CC"/>
</svg>
