<svg width="1000" height="1000" viewBox="0 0 1000 1000" fill="none" xmlns="http://www.w3.org/2000/svg">
<rect width="1000" height="1000" fill="white"/>
<path d="M677.27 382.45C650.39 395.38 621.52 418.64 591.27 456.38C573.16 411.2 543.97 361.27 499.87 306.8C455.77 361.27 426.59 411.2 408.51 456.38C378.22 418.64 349.35 395.38 322.51 382.45C330.3 351.45 343.59 322.71 364.75 300.22C383.54 280.28 405.51 264.74 426.34 247.63C441.022 235.436 454.424 221.779 466.34 206.87C478.34 191.87 487.34 171.74 499.89 158C512.41 171.74 521.39 191.86 533.44 206.87C545.355 221.779 558.758 235.436 573.44 247.63C594.27 264.74 616.24 280.28 635.03 300.22C656.19 322.71 669.47 351.47 677.27 382.45Z" fill="#99CCFF"/>
<path d="M500.19 755.82C500.19 753.38 500.19 750.954 500.19 748.54C500.19 750.95 500.19 753.38 500.19 755.82C500.19 755.82 296.41 624.45 500.19 359.74C500.19 359.74 500.19 360.31 500.19 361.56C500.19 360.31 500.19 359.74 500.19 359.74C703.98 624.45 500.19 755.82 500.19 755.82Z" fill="#3366CC"/>
<path d="M829.49 459.5C798.49 485.42 777.35 519.33 758.95 555.92C755.95 561.83 753.07 567.82 750.21 573.84C744.14 586.61 738.21 599.61 732.27 612.58C691.93 700.07 626.85 713.75 589.27 713.58C586.03 713.58 583.01 713.44 580.27 713.26C591.852 694.962 601.034 675.25 607.59 654.61V654.61C621.59 610.49 625.09 555.84 605.13 490.61C608.537 485.55 611.933 480.743 615.32 476.19C639.92 443.05 663.61 423.07 685.69 412.19C769.03 371.08 829.49 459.5 829.49 459.5Z" fill="#3366CC"/>
<path d="M170.24 459.5C201.24 485.42 222.39 519.33 240.78 555.92C243.78 561.83 246.67 567.82 249.53 573.84C255.6 586.61 261.48 599.61 267.47 612.58C307.81 700.07 372.89 713.75 410.47 713.58C413.71 713.58 416.73 713.44 419.47 713.26C407.875 694.967 398.679 675.259 392.11 654.62C378.16 610.5 374.61 555.85 394.57 490.62C391.157 485.56 387.76 480.753 384.38 476.2C359.78 443.06 336.09 423.08 314.01 412.2C230.71 371.08 170.24 459.5 170.24 459.5Z" fill="#3366CC"/>
<path d="M562.85 737.2C562.85 737.2 714.17 784.2 776.08 575.74C776.08 575.74 849.5 561.79 863.18 622.52C863.18 622.52 800.55 655.34 771.76 748.06C742.97 840.78 656.06 856.97 523.76 772.36C523.71 772.37 535.02 765.47 562.85 737.2Z" fill="#003399"/>
<path d="M436.33 737.2C436.33 737.2 285.01 784.2 223.1 575.75C223.1 575.75 149.68 561.8 136 622.53C136 622.53 198.63 655.35 227.42 748.07C256.21 840.79 343.12 856.98 475.47 772.37C475.47 772.37 464.16 765.47 436.33 737.2Z" fill="#003399"/>
<path d="M612.88 842.4C586.54 842.4 563.88 842.28 537.54 842.4H462.2C435.85 842.28 413.2 842.4 386.86 842.4C426.1 828.92 466.8 811.33 499.86 782.76C532.94 811.33 573.64 828.92 612.88 842.4Z" fill="#3366CC"/>
</svg>
