<svg width="728" height="685" viewBox="0 0 728 685" fill="none" xmlns="http://www.w3.org/2000/svg">
<path d="M541.27 224.45C514.39 237.38 485.52 260.64 455.27 298.38C437.16 253.2 407.97 203.27 363.87 148.8C319.77 203.27 290.59 253.2 272.51 298.38C242.22 260.64 213.35 237.38 186.51 224.45C194.3 193.45 207.59 164.71 228.75 142.22C247.54 122.28 269.51 106.74 290.34 89.63C305.022 77.4359 318.424 63.7788 330.34 48.87C342.34 33.87 351.34 13.74 363.89 0C376.41 13.74 385.39 33.86 397.44 48.87C409.356 63.7788 422.758 77.4359 437.44 89.63C458.27 106.74 480.24 122.28 499.03 142.22C520.19 164.71 533.47 193.47 541.27 224.45Z" fill="#99CCFF"/>
<path d="M364.19 597.82C364.19 595.38 364.19 592.954 364.19 590.54C364.19 592.95 364.19 595.38 364.19 597.82C364.19 597.82 160.41 466.45 364.19 201.74C364.19 201.74 364.19 202.31 364.19 203.56C364.19 202.31 364.19 201.74 364.19 201.74C567.98 466.45 364.19 597.82 364.19 597.82Z" fill="#3366CC"/>
<path d="M693.49 301.5C662.49 327.42 641.35 361.33 622.95 397.92C619.95 403.83 617.07 409.82 614.21 415.84C608.14 428.61 602.21 441.61 596.27 454.58C555.93 542.07 490.85 555.75 453.27 555.58C450.03 555.58 447.01 555.44 444.27 555.26C455.852 536.962 465.034 517.25 471.59 496.61V496.61C485.59 452.49 489.09 397.84 469.13 332.61C472.537 327.55 475.933 322.743 479.32 318.19C503.92 285.05 527.61 265.07 549.69 254.19C633.03 213.08 693.49 301.5 693.49 301.5Z" fill="#3366CC"/>
<path d="M34.24 301.5C65.24 327.42 86.39 361.33 104.78 397.92C107.78 403.83 110.67 409.82 113.53 415.84C119.6 428.61 125.48 441.61 131.47 454.58C171.81 542.07 236.89 555.75 274.47 555.58C277.71 555.58 280.73 555.44 283.47 555.26C271.874 536.967 262.679 517.259 256.11 496.62C242.16 452.5 238.61 397.85 258.57 332.62C255.157 327.56 251.76 322.753 248.38 318.2C223.78 285.06 200.09 265.08 178.01 254.2C94.71 213.08 34.24 301.5 34.24 301.5Z" fill="#3366CC"/>
<path d="M426.85 579.2C426.85 579.2 578.17 626.2 640.08 417.74C640.08 417.74 713.5 403.79 727.18 464.52C727.18 464.52 664.55 497.34 635.76 590.06C606.97 682.78 520.06 698.97 387.76 614.36C387.71 614.37 399.02 607.47 426.85 579.2Z" fill="#003399"/>
<path d="M300.33 579.2C300.33 579.2 149.01 626.2 87.1 417.75C87.1 417.75 13.68 403.8 0 464.53C0 464.53 62.63 497.35 91.42 590.07C120.21 682.79 207.12 698.98 339.47 614.37C339.47 614.37 328.16 607.47 300.33 579.2Z" fill="#003399"/>
<path d="M476.88 684.4C450.54 684.4 427.88 684.28 401.54 684.4H326.2C299.85 684.28 277.2 684.4 250.86 684.4C290.1 670.92 330.8 653.33 363.86 624.76C396.94 653.33 437.64 670.92 476.88 684.4Z" fill="#3366CC"/>
</svg>
