<svg width="381" height="41" viewBox="0 0 381 41" fill="none" xmlns="http://www.w3.org/2000/svg">
<path d="M47.98 34H57.43C60.03 34 62.06 33.39 63.52 32.17C64.98 30.95 65.71 29.24 65.71 27.04C65.71 26.06 65.53 25.14 65.17 24.28C64.83 23.4 64.17 22.62 63.19 21.94C63.75 21.4 64.15 20.81 64.39 20.17C64.65 19.53 64.78 18.87 64.78 18.19C64.78 16.13 64.13 14.53 62.83 13.39C61.55 12.23 59.75 11.65 57.43 11.65H47.98V34ZM52.63 20.05V15.55H57.76C58.48 15.55 59.05 15.76 59.47 16.18C59.91 16.58 60.13 17.12 60.13 17.8C60.13 18.48 59.91 19.03 59.47 19.45C59.05 19.85 58.48 20.05 57.76 20.05H52.63ZM52.63 29.95V24.1H57.97C58.91 24.1 59.66 24.37 60.22 24.91C60.78 25.45 61.06 26.16 61.06 27.04C61.06 27.9 60.78 28.6 60.22 29.14C59.66 29.68 58.91 29.95 57.97 29.95H52.63ZM68.3629 34H72.8629V11.29H68.3629V34ZM82.0359 34.36C83.0759 34.36 83.9959 34.17 84.7959 33.79C85.5959 33.39 86.2059 32.79 86.6259 31.99V34H90.8259V17.62H86.3259V27.19C86.3259 28.13 86.0459 28.89 85.4859 29.47C84.9259 30.03 84.2059 30.31 83.3259 30.31C82.4459 30.31 81.7259 30.03 81.1659 29.47C80.6059 28.89 80.3259 28.13 80.3259 27.19V17.62H75.8259V27.55C75.8259 29.59 76.3559 31.24 77.4159 32.5C78.4959 33.74 80.0359 34.36 82.0359 34.36ZM102.005 34.36C103.685 34.36 105.155 34 106.415 33.28C107.675 32.54 108.555 31.57 109.055 30.37L105.455 28.66C105.135 29.22 104.685 29.66 104.105 29.98C103.545 30.3 102.865 30.46 102.065 30.46C100.965 30.46 100.065 30.15 99.3648 29.53C98.6648 28.91 98.2548 28.09 98.1348 27.07H109.595C109.675 26.85 109.725 26.59 109.745 26.29C109.785 25.97 109.805 25.65 109.805 25.33C109.805 23.81 109.485 22.45 108.845 21.25C108.225 20.03 107.315 19.06 106.115 18.34C104.915 17.62 103.445 17.26 101.705 17.26C100.145 17.26 98.7448 17.63 97.5048 18.37C96.2648 19.11 95.2748 20.12 94.5348 21.4C93.8148 22.68 93.4548 24.14 93.4548 25.78C93.4548 27.36 93.8048 28.8 94.5048 30.1C95.2048 31.4 96.1948 32.44 97.4748 33.22C98.7548 33.98 100.265 34.36 102.005 34.36ZM101.705 20.86C102.625 20.86 103.385 21.13 103.985 21.67C104.585 22.21 104.935 22.91 105.035 23.77H98.2248C98.4448 22.83 98.8548 22.11 99.4548 21.61C100.075 21.11 100.825 20.86 101.705 20.86ZM121.635 34.36C123.235 34.36 124.665 33.98 125.925 33.22C127.185 32.46 128.175 31.43 128.895 30.13C129.635 28.83 130.005 27.39 130.005 25.81C130.005 24.21 129.635 22.77 128.895 21.49C128.155 20.19 127.155 19.16 125.895 18.4C124.635 17.64 123.225 17.26 121.665 17.26C119.685 17.26 118.115 17.84 116.955 19V11.29H112.455V34H116.655V32.44C117.235 33.06 117.955 33.54 118.815 33.88C119.695 34.2 120.635 34.36 121.635 34.36ZM121.095 30.31C119.875 30.31 118.875 29.9 118.095 29.08C117.335 28.24 116.955 27.15 116.955 25.81C116.955 24.49 117.335 23.41 118.095 22.57C118.875 21.73 119.875 21.31 121.095 21.31C122.335 21.31 123.355 21.74 124.155 22.6C124.955 23.44 125.355 24.51 125.355 25.81C125.355 27.13 124.955 28.21 124.155 29.05C123.355 29.89 122.335 30.31 121.095 30.31ZM140.77 34.36C142.39 34.36 143.86 33.99 145.18 33.25C146.5 32.51 147.55 31.5 148.33 30.22C149.13 28.92 149.53 27.45 149.53 25.81C149.53 24.15 149.13 22.68 148.33 21.4C147.55 20.12 146.5 19.11 145.18 18.37C143.86 17.63 142.39 17.26 140.77 17.26C139.15 17.26 137.67 17.63 136.33 18.37C135.01 19.11 133.95 20.12 133.15 21.4C132.37 22.68 131.98 24.15 131.98 25.81C131.98 27.45 132.37 28.92 133.15 30.22C133.95 31.5 135.01 32.51 136.33 33.25C137.67 33.99 139.15 34.36 140.77 34.36ZM140.77 30.31C139.55 30.31 138.55 29.89 137.77 29.05C137.01 28.21 136.63 27.13 136.63 25.81C136.63 24.51 137.01 23.44 137.77 22.6C138.55 21.74 139.55 21.31 140.77 21.31C141.99 21.31 142.98 21.74 143.74 22.6C144.5 23.44 144.88 24.51 144.88 25.81C144.88 27.13 144.5 28.21 143.74 29.05C142.98 29.89 141.99 30.31 140.77 30.31ZM152.181 34H156.681V24.43C156.681 23.49 156.961 22.74 157.521 22.18C158.081 21.6 158.801 21.31 159.681 21.31C160.561 21.31 161.281 21.6 161.841 22.18C162.401 22.74 162.681 23.49 162.681 24.43V34H167.181V23.47C167.181 22.23 166.921 21.15 166.401 20.23C165.881 19.29 165.151 18.56 164.211 18.04C163.291 17.52 162.211 17.26 160.971 17.26C159.931 17.26 159.011 17.46 158.211 17.86C157.411 18.24 156.801 18.83 156.381 19.63V17.62H152.181V34ZM170.14 34H174.64V24.43C174.64 23.49 174.92 22.74 175.48 22.18C176.04 21.6 176.76 21.31 177.64 21.31C178.52 21.31 179.24 21.6 179.8 22.18C180.36 22.74 180.64 23.49 180.64 24.43V34H185.14V23.47C185.14 22.23 184.88 21.15 184.36 20.23C183.84 19.29 183.11 18.56 182.17 18.04C181.25 17.52 180.17 17.26 178.93 17.26C177.89 17.26 176.97 17.46 176.17 17.86C175.37 18.24 174.76 18.83 174.34 19.63V17.62H170.14V34ZM195.989 34.36C197.669 34.36 199.139 34 200.399 33.28C201.659 32.54 202.539 31.57 203.039 30.37L199.439 28.66C199.119 29.22 198.669 29.66 198.089 29.98C197.529 30.3 196.849 30.46 196.049 30.46C194.949 30.46 194.049 30.15 193.349 29.53C192.649 28.91 192.239 28.09 192.119 27.07H203.579C203.659 26.85 203.709 26.59 203.729 26.29C203.769 25.97 203.789 25.65 203.789 25.33C203.789 23.81 203.469 22.45 202.829 21.25C202.209 20.03 201.299 19.06 200.099 18.34C198.899 17.62 197.429 17.26 195.689 17.26C194.129 17.26 192.729 17.63 191.489 18.37C190.249 19.11 189.259 20.12 188.519 21.4C187.799 22.68 187.439 24.14 187.439 25.78C187.439 27.36 187.789 28.8 188.489 30.1C189.189 31.4 190.179 32.44 191.459 33.22C192.739 33.98 194.249 34.36 195.989 34.36ZM195.689 20.86C196.609 20.86 197.369 21.13 197.969 21.67C198.569 22.21 198.919 22.91 199.019 23.77H192.209C192.429 22.83 192.839 22.11 193.439 21.61C194.059 21.11 194.809 20.86 195.689 20.86ZM214.329 34.18C215.069 34.18 215.769 34.13 216.429 34.03V30.19C216.009 30.25 215.659 30.28 215.379 30.28C213.519 30.28 212.589 29.45 212.589 27.79V21.52H216.429V17.62H212.589V13.9H208.089V15.1C208.089 16.78 207.219 17.62 205.479 17.62H205.329V21.52H208.089V28.09C208.089 30.01 208.629 31.51 209.709 32.59C210.809 33.65 212.349 34.18 214.329 34.18ZM235.407 34.36C237.027 34.36 238.477 34.09 239.757 33.55C241.057 33.01 242.157 32.29 243.057 31.39C243.957 30.49 244.597 29.49 244.977 28.39L240.867 26.41C240.487 27.49 239.817 28.39 238.857 29.11C237.917 29.81 236.767 30.16 235.407 30.16C234.087 30.16 232.927 29.85 231.927 29.23C230.927 28.61 230.147 27.75 229.587 26.65C229.047 25.55 228.777 24.27 228.777 22.81C228.777 21.35 229.047 20.08 229.587 19C230.147 17.9 230.927 17.04 231.927 16.42C232.927 15.8 234.087 15.49 235.407 15.49C236.767 15.49 237.917 15.85 238.857 16.57C239.817 17.27 240.487 18.16 240.867 19.24L244.977 17.26C244.597 16.16 243.957 15.16 243.057 14.26C242.157 13.36 241.057 12.64 239.757 12.1C238.477 11.56 237.027 11.29 235.407 11.29C233.787 11.29 232.287 11.58 230.907 12.16C229.547 12.72 228.357 13.52 227.337 14.56C226.317 15.58 225.527 16.8 224.967 18.22C224.407 19.62 224.127 21.15 224.127 22.81C224.127 24.47 224.407 26 224.967 27.4C225.547 28.8 226.347 30.02 227.367 31.06C228.387 32.1 229.577 32.91 230.937 33.49C232.317 34.07 233.807 34.36 235.407 34.36ZM247.63 34H252.13V11.29H247.63V34ZM260.493 34.36C262.533 34.36 264.173 33.73 265.413 32.47V34H269.613V23.2C269.613 22.02 269.313 20.99 268.713 20.11C268.133 19.21 267.313 18.51 266.253 18.01C265.193 17.51 263.973 17.26 262.593 17.26C260.853 17.26 259.323 17.66 258.003 18.46C256.703 19.26 255.813 20.34 255.333 21.7L258.933 23.41C259.213 22.69 259.653 22.11 260.253 21.67C260.873 21.23 261.583 21.01 262.383 21.01C263.223 21.01 263.883 21.22 264.363 21.64C264.863 22.06 265.113 22.58 265.113 23.2V23.65L260.583 24.37C258.623 24.69 257.163 25.3 256.203 26.2C255.243 27.1 254.763 28.24 254.763 29.62C254.763 31.1 255.273 32.26 256.293 33.1C257.333 33.94 258.733 34.36 260.493 34.36ZM259.413 29.47C259.413 28.93 259.583 28.52 259.923 28.24C260.263 27.94 260.753 27.73 261.393 27.61L265.113 26.95V27.46C265.113 28.46 264.773 29.31 264.093 30.01C263.413 30.71 262.513 31.06 261.393 31.06C260.833 31.06 260.363 30.92 259.983 30.64C259.603 30.36 259.413 29.97 259.413 29.47ZM279.334 34.36C281.234 34.36 282.764 33.89 283.924 32.95C285.084 32.01 285.664 30.78 285.664 29.26C285.664 28.08 285.304 27.09 284.584 26.29C283.864 25.47 282.824 24.86 281.464 24.46L278.854 23.68C277.674 23.34 277.084 22.85 277.084 22.21C277.084 21.79 277.244 21.46 277.564 21.22C277.904 20.98 278.364 20.86 278.944 20.86C279.744 20.86 280.454 21.07 281.074 21.49C281.714 21.89 282.154 22.43 282.394 23.11L285.724 21.55C285.224 20.19 284.364 19.14 283.144 18.4C281.944 17.64 280.544 17.26 278.944 17.26C277.724 17.26 276.644 17.48 275.704 17.92C274.764 18.34 274.034 18.93 273.514 19.69C272.994 20.45 272.734 21.34 272.734 22.36C272.734 23.52 273.094 24.53 273.814 25.39C274.534 26.23 275.564 26.84 276.904 27.22L279.694 28C280.774 28.3 281.314 28.78 281.314 29.44C281.314 30.42 280.654 30.91 279.334 30.91C278.454 30.91 277.654 30.66 276.934 30.16C276.214 29.66 275.644 28.97 275.224 28.09L271.924 29.65C272.404 31.09 273.304 32.24 274.624 33.1C275.964 33.94 277.534 34.36 279.334 34.36ZM294.773 34.36C296.673 34.36 298.203 33.89 299.363 32.95C300.523 32.01 301.103 30.78 301.103 29.26C301.103 28.08 300.743 27.09 300.023 26.29C299.303 25.47 298.263 24.86 296.903 24.46L294.293 23.68C293.113 23.34 292.523 22.85 292.523 22.21C292.523 21.79 292.683 21.46 293.003 21.22C293.343 20.98 293.803 20.86 294.383 20.86C295.183 20.86 295.893 21.07 296.513 21.49C297.153 21.89 297.593 22.43 297.833 23.11L301.163 21.55C300.663 20.19 299.803 19.14 298.583 18.4C297.383 17.64 295.983 17.26 294.383 17.26C293.163 17.26 292.083 17.48 291.143 17.92C290.203 18.34 289.473 18.93 288.953 19.69C288.433 20.45 288.173 21.34 288.173 22.36C288.173 23.52 288.533 24.53 289.253 25.39C289.973 26.23 291.003 26.84 292.343 27.22L295.133 28C296.213 28.3 296.753 28.78 296.753 29.44C296.753 30.42 296.093 30.91 294.773 30.91C293.893 30.91 293.093 30.66 292.373 30.16C291.653 29.66 291.083 28.97 290.663 28.09L287.363 29.65C287.843 31.09 288.743 32.24 290.063 33.1C291.403 33.94 292.973 34.36 294.773 34.36ZM303.793 34H308.293V25.18C308.293 23.96 308.633 23.02 309.313 22.36C309.993 21.68 310.883 21.34 311.983 21.34H313.393V17.44H312.433C311.433 17.44 310.543 17.63 309.763 18.01C309.003 18.37 308.413 19.06 307.993 20.08V17.62H303.793V34ZM323.495 34.36C325.115 34.36 326.585 33.99 327.905 33.25C329.225 32.51 330.275 31.5 331.055 30.22C331.855 28.92 332.255 27.45 332.255 25.81C332.255 24.15 331.855 22.68 331.055 21.4C330.275 20.12 329.225 19.11 327.905 18.37C326.585 17.63 325.115 17.26 323.495 17.26C321.875 17.26 320.395 17.63 319.055 18.37C317.735 19.11 316.675 20.12 315.875 21.4C315.095 22.68 314.705 24.15 314.705 25.81C314.705 27.45 315.095 28.92 315.875 30.22C316.675 31.5 317.735 32.51 319.055 33.25C320.395 33.99 321.875 34.36 323.495 34.36ZM323.495 30.31C322.275 30.31 321.275 29.89 320.495 29.05C319.735 28.21 319.355 27.13 319.355 25.81C319.355 24.51 319.735 23.44 320.495 22.6C321.275 21.74 322.275 21.31 323.495 21.31C324.715 21.31 325.705 21.74 326.465 22.6C327.225 23.44 327.605 24.51 327.605 25.81C327.605 27.13 327.225 28.21 326.465 29.05C325.705 29.89 324.715 30.31 323.495 30.31ZM343.036 34.36C344.656 34.36 346.126 33.99 347.446 33.25C348.766 32.51 349.816 31.5 350.596 30.22C351.396 28.92 351.796 27.45 351.796 25.81C351.796 24.15 351.396 22.68 350.596 21.4C349.816 20.12 348.766 19.11 347.446 18.37C346.126 17.63 344.656 17.26 343.036 17.26C341.416 17.26 339.936 17.63 338.596 18.37C337.276 19.11 336.216 20.12 335.416 21.4C334.636 22.68 334.246 24.15 334.246 25.81C334.246 27.45 334.636 28.92 335.416 30.22C336.216 31.5 337.276 32.51 338.596 33.25C339.936 33.99 341.416 34.36 343.036 34.36ZM343.036 30.31C341.816 30.31 340.816 29.89 340.036 29.05C339.276 28.21 338.896 27.13 338.896 25.81C338.896 24.51 339.276 23.44 340.036 22.6C340.816 21.74 341.816 21.31 343.036 21.31C344.256 21.31 345.246 21.74 346.006 22.6C346.766 23.44 347.146 24.51 347.146 25.81C347.146 27.13 346.766 28.21 346.006 29.05C345.246 29.89 344.256 30.31 343.036 30.31ZM354.447 34H358.947V24.43C358.947 23.49 359.197 22.74 359.697 22.18C360.217 21.6 360.917 21.31 361.797 21.31C362.677 21.31 363.367 21.6 363.867 22.18C364.387 22.74 364.647 23.49 364.647 24.43V34H369.147V24.43C369.147 23.49 369.397 22.74 369.897 22.18C370.417 21.6 371.117 21.31 371.997 21.31C372.877 21.31 373.567 21.6 374.067 22.18C374.587 22.74 374.847 23.49 374.847 24.43V34H379.347V23.47C379.347 22.23 379.087 21.15 378.567 20.23C378.047 19.29 377.327 18.56 376.407 18.04C375.507 17.52 374.467 17.26 373.287 17.26C372.227 17.26 371.257 17.47 370.377 17.89C369.517 18.29 368.797 18.92 368.217 19.78C367.757 19 367.077 18.39 366.177 17.95C365.297 17.49 364.317 17.26 363.237 17.26C362.197 17.26 361.277 17.46 360.477 17.86C359.677 18.24 359.067 18.83 358.647 19.63V17.62H354.447V34Z" fill="black"/>
<path d="M29.7736 12.4622C28.295 13.1801 26.7069 14.4715 25.043 16.567C24.0468 14.0584 22.4411 11.2862 20.0153 8.26184C17.5895 11.2862 15.9844 14.0584 14.9899 16.567C13.3237 14.4715 11.7357 13.1801 10.2593 12.4622C10.6878 10.7409 11.4188 9.14521 12.5828 7.89649C13.6164 6.78936 14.8249 5.92653 15.9707 4.97653C16.7783 4.29948 17.5155 3.5412 18.1709 2.71341C18.831 1.88057 19.3261 0.762887 20.0164 0C20.7051 0.762887 21.1991 1.88001 21.8619 2.71341C22.5173 3.5412 23.2546 4.29948 24.0622 4.97653C25.208 5.92653 26.4165 6.78936 27.4501 7.89649C28.614 9.14521 29.3445 10.7421 29.7736 12.4622Z" fill="#99CCFF"/>
<path d="M20.0327 33.1928C20.0327 33.0573 20.0327 32.9225 20.0327 32.7885C20.0327 32.9224 20.0327 33.0573 20.0327 33.1928C20.0327 33.1928 8.82338 25.8987 20.0327 11.2012C20.0327 11.2012 20.0327 11.2328 20.0327 11.3022C20.0327 11.2328 20.0327 11.2012 20.0327 11.2012C31.2426 25.8987 20.0327 33.1928 20.0327 33.1928Z" fill="#3366CC"/>
<path d="M38.1463 16.7403C36.4411 18.1795 35.2783 20.0622 34.2662 22.0938C34.1011 22.422 33.9427 22.7546 33.7854 23.0888C33.4515 23.7978 33.1253 24.5196 32.7986 25.2398C30.5796 30.0975 26.9997 30.857 24.9326 30.8476C24.7543 30.8476 24.5882 30.8398 24.4375 30.8298C25.0746 29.8139 25.5797 28.7194 25.9403 27.5734V27.5734C26.7104 25.1237 26.9029 22.0894 25.805 18.4676C25.9924 18.1867 26.1792 17.9198 26.3655 17.667C27.7187 15.8269 29.0218 14.7176 30.2363 14.1135C34.8206 11.8309 38.1463 16.7403 38.1463 16.7403Z" fill="#3366CC"/>
<path d="M1.8833 16.7402C3.58852 18.1794 4.75192 20.0622 5.7635 22.0938C5.92852 22.4219 6.08749 22.7545 6.24481 23.0888C6.5787 23.7978 6.90214 24.5196 7.23163 25.2397C9.45061 30.0974 13.0305 30.857 15.0976 30.8476C15.2759 30.8476 15.442 30.8398 15.5927 30.8298C14.9549 29.8141 14.4491 28.7198 14.0877 27.5739C13.3204 25.1242 13.1251 22.0899 14.223 18.4681C14.0353 18.1872 13.8484 17.9203 13.6625 17.6675C12.3093 15.8274 11.0062 14.7181 9.79166 14.114C5.20958 11.8309 1.8833 16.7402 1.8833 16.7402Z" fill="#3366CC"/>
<path d="M23.4798 32.1589C23.4798 32.1589 31.8035 34.7685 35.209 23.1942C35.209 23.1942 39.2476 22.4196 40.0001 25.7916C40.0001 25.7916 36.555 27.6138 34.9713 32.7619C33.3877 37.91 28.607 38.8089 21.3296 34.1111C21.3268 34.1117 21.949 33.7286 23.4798 32.1589Z" fill="#003399"/>
<path d="M16.5203 32.1591C16.5203 32.1591 8.19659 34.7687 4.79111 23.1949C4.79111 23.1949 0.752496 22.4204 0 25.7923C0 25.7923 3.44509 27.6146 5.02874 32.7627C6.61239 37.9108 11.3931 38.8097 18.6732 34.1119C18.6732 34.1119 18.0511 33.7288 16.5203 32.1591Z" fill="#003399"/>
<path d="M26.2315 38.0001C24.7826 38.0001 23.5362 37.9935 22.0873 38.0001H17.9431C16.4936 37.9935 15.2477 38.0001 13.7988 38.0001C15.9573 37.2517 18.1961 36.275 20.0146 34.6887C21.8343 36.275 24.073 37.2517 26.2315 38.0001Z" fill="#3366CC"/>
</svg>
