<svg width="45" height="45" viewBox="0 0 45 45" fill="none" xmlns="http://www.w3.org/2000/svg">
<rect x="1.5" y="1.5" width="42" height="42" rx="11" fill="white" stroke="#88BBFF" stroke-width="3"/>
<path d="M28.6085 18.5429C27.6844 18.9774 26.6919 19.7591 25.6519 21.0274C25.0293 19.5091 24.0258 17.8311 22.5096 16.0006C20.9935 17.8311 19.9903 19.5091 19.3687 21.0274C18.3274 19.7591 17.3349 18.9774 16.4121 18.5429C16.6799 17.5011 17.1368 16.5353 17.8643 15.7795C18.5103 15.1094 19.2656 14.5871 19.9817 14.0121C20.4865 13.6023 20.9472 13.1434 21.3569 12.6423C21.7694 12.1382 22.0789 11.4617 22.5103 11C22.9408 11.4617 23.2495 12.1379 23.6638 12.6423C24.0734 13.1434 24.5342 13.6023 25.0389 14.0121C25.755 14.5871 26.5104 15.1094 27.1564 15.7795C27.8838 16.5353 28.3404 17.5018 28.6085 18.5429Z" fill="#99CCFF"/>
<path d="M22.5206 31.0904C22.5206 31.0084 22.5206 30.9268 22.5206 30.8457C22.5206 30.9267 22.5206 31.0084 22.5206 31.0904C22.5206 31.0904 15.5148 26.6756 22.5206 17.7797C22.5206 17.7797 22.5206 17.7988 22.5206 17.8409C22.5206 17.7988 22.5206 17.7797 22.5206 17.7797C29.5268 26.6756 22.5206 31.0904 22.5206 31.0904Z" fill="#3366CC"/>
<path d="M33.8418 21.1322C32.776 22.0033 32.0492 23.1429 31.4167 24.3725C31.3135 24.5711 31.2145 24.7724 31.1162 24.9748C30.9075 25.4039 30.7036 25.8408 30.4994 26.2767C29.1125 29.2168 26.8751 29.6766 25.5832 29.6709C25.4718 29.6709 25.3679 29.6662 25.2737 29.6601C25.6719 29.0452 25.9876 28.3827 26.213 27.6891C26.6943 26.2064 26.8146 24.3698 26.1284 22.1777C26.2455 22.0077 26.3623 21.8461 26.4787 21.6931C27.3245 20.5794 28.1389 19.908 28.898 19.5423C31.7632 18.1608 33.8418 21.1322 33.8418 21.1322Z" fill="#3366CC"/>
<path d="M11.1772 21.1323C12.2429 22.0033 12.9701 23.1429 13.6023 24.3726C13.7054 24.5712 13.8048 24.7725 13.9031 24.9748C14.1118 25.4039 14.314 25.8408 14.5199 26.2767C15.9068 29.2169 18.1442 29.6766 19.4361 29.6709C19.5475 29.6709 19.6514 29.6662 19.7456 29.6601C19.3469 29.0454 19.0308 28.3831 18.8049 27.6895C18.3253 26.2068 18.2033 24.3702 18.8895 22.1781C18.7722 22.008 18.6554 21.8465 18.5392 21.6935C17.6935 20.5798 16.879 19.9083 16.1199 19.5427C13.2561 18.1608 11.1772 21.1323 11.1772 21.1323Z" fill="#3366CC"/>
<path d="M24.6748 30.4647C24.6748 30.4647 29.8771 32.0441 32.0055 25.0386C32.0055 25.0386 34.5297 24.5698 35 26.6107C35 26.6107 32.8468 27.7137 31.857 30.8296C30.8672 33.9456 27.8793 34.4896 23.3309 31.6462C23.3292 31.6466 23.7181 31.4147 24.6748 30.4647Z" fill="#003399"/>
<path d="M20.3252 30.4646C20.3252 30.4646 15.1229 32.0441 12.9944 25.0389C12.9944 25.0389 10.4703 24.5701 10 26.611C10 26.611 12.1532 27.714 13.143 30.8299C14.1327 33.9459 17.1207 34.49 21.6708 31.6465C21.6708 31.6465 21.2819 31.4147 20.3252 30.4646Z" fill="#003399"/>
<path d="M26.3949 34C25.4893 34 24.7103 33.996 23.8047 34H21.2146C20.3087 33.996 19.53 34 18.6245 34C19.9735 33.547 21.3727 32.9559 22.5093 31.9958C23.6466 32.9559 25.0458 33.547 26.3949 34Z" fill="#3366CC"/>
</svg>
