<svg width="150" height="160" viewBox="0 0 150 160" fill="none" xmlns="http://www.w3.org/2000/svg">
<path d="M75 2C33.5685 2 0 36.6875 0 79.5C0 122.312 33.5685 157 75 157C116.431 157 150 122.312 150 79.5C150 36.6875 116.431 2 75 2ZM75 32C89.6976 32 101.613 44.3125 101.613 59.5C101.613 74.6875 89.6976 87 75 87C60.3024 87 48.3871 74.6875 48.3871 59.5C48.3871 44.3125 60.3024 32 75 32ZM75 139.5C57.248 139.5 41.3407 131.187 30.6956 118.187C36.381 107.125 47.5101 99.5 60.4839 99.5C61.2097 99.5 61.9355 99.625 62.6311 99.8438C66.5625 101.156 70.6754 102 75 102C79.3246 102 83.4677 101.156 87.369 99.8438C88.0645 99.625 88.7903 99.5 89.5161 99.5C102.49 99.5 113.619 107.125 119.304 118.187C108.659 131.187 92.752 139.5 75 139.5Z" fill="#CCE2FF"/>
</svg>
