<svg width="150" height="150" viewBox="0 0 150 150" fill="none" xmlns="http://www.w3.org/2000/svg">
<path d="M75 1.875C33.5685 1.875 0 34.3945 0 74.5312C0 114.668 33.5685 147.188 75 147.188C116.431 147.188 150 114.668 150 74.5312C150 34.3945 116.431 1.875 75 1.875ZM75 30C89.6976 30 101.613 41.543 101.613 55.7812C101.613 70.0195 89.6976 81.5625 75 81.5625C60.3024 81.5625 48.3871 70.0195 48.3871 55.7812C48.3871 41.543 60.3024 30 75 30ZM75 130.781C57.248 130.781 41.3407 122.988 30.6956 110.8C36.381 100.43 47.5101 93.2812 60.4839 93.2812C61.2097 93.2812 61.9355 93.3984 62.6311 93.6036C66.5625 94.8338 70.6754 95.625 75 95.625C79.3246 95.625 83.4677 94.8338 87.369 93.6036C88.0645 93.3984 88.7903 93.2812 89.5161 93.2812C102.49 93.2812 113.619 100.43 119.304 110.8C108.659 122.988 92.752 130.781 75 130.781Z" fill="#CCE2FF"/>
</svg>
