<svg width="780" height="794" viewBox="0 0 780 794" fill="none" xmlns="http://www.w3.org/2000/svg">
<rect width="780" height="794" fill="url(#paint0_linear)"/>
<path d="M125.4 238.576C127.512 238.576 129.56 238.224 131.544 237.52C133.528 236.784 135.304 235.712 136.872 234.304C138.472 232.864 139.736 231.104 140.664 229.024C141.592 226.912 142.056 224.464 142.056 221.68V218.08H125.256V223.6H135.528V223.744C135.528 225.568 135.064 227.152 134.136 228.496C133.208 229.808 131.976 230.832 130.44 231.568C128.904 232.272 127.224 232.624 125.4 232.624C123.16 232.624 121.176 232.096 119.448 231.04C117.72 229.984 116.36 228.528 115.368 226.672C114.408 224.784 113.928 222.592 113.928 220.096C113.928 217.6 114.408 215.424 115.368 213.568C116.328 211.68 117.656 210.224 119.352 209.2C121.048 208.144 123.016 207.616 125.256 207.616C127.528 207.616 129.464 208.192 131.064 209.344C132.664 210.496 133.816 212 134.52 213.856L140.328 211.072C139.72 209.376 138.712 207.824 137.304 206.416C135.896 204.976 134.168 203.824 132.12 202.96C130.104 202.096 127.816 201.664 125.256 201.664C122.696 201.664 120.328 202.128 118.152 203.056C115.976 203.952 114.088 205.232 112.488 206.896C110.888 208.528 109.64 210.48 108.744 212.752C107.848 214.992 107.4 217.44 107.4 220.096C107.4 222.752 107.848 225.216 108.744 227.488C109.672 229.728 110.952 231.68 112.584 233.344C114.216 235.008 116.12 236.304 118.296 237.232C120.472 238.128 122.84 238.576 125.4 238.576ZM157.878 238.576C160.534 238.576 162.854 237.984 164.838 236.8C166.854 235.584 168.262 234.048 169.062 232.192L163.974 229.696C163.398 230.688 162.598 231.504 161.574 232.144C160.582 232.752 159.366 233.056 157.926 233.056C156.038 233.056 154.454 232.48 153.174 231.328C151.894 230.176 151.158 228.64 150.966 226.72H169.782C169.91 226.368 169.99 225.968 170.022 225.52C170.086 225.04 170.118 224.56 170.118 224.08C170.118 221.744 169.622 219.616 168.63 217.696C167.638 215.776 166.198 214.24 164.31 213.088C162.422 211.904 160.118 211.312 157.398 211.312C154.966 211.312 152.758 211.904 150.774 213.088C148.822 214.272 147.27 215.888 146.118 217.936C144.998 219.952 144.438 222.272 144.438 224.896C144.438 227.424 144.998 229.728 146.118 231.808C147.238 233.888 148.806 235.536 150.822 236.752C152.838 237.968 155.19 238.576 157.878 238.576ZM157.398 216.496C159.062 216.496 160.438 217.008 161.526 218.032C162.646 219.024 163.27 220.32 163.398 221.92H151.11C151.462 220.192 152.198 218.864 153.318 217.936C154.47 216.976 155.83 216.496 157.398 216.496ZM185.588 238.288C186.644 238.288 187.684 238.208 188.708 238.048V232.624C188.1 232.72 187.54 232.768 187.028 232.768C185.492 232.768 184.372 232.416 183.668 231.712C182.964 231.008 182.612 230 182.612 228.688V217.504H188.612V211.888H182.612V205.936H176.324V207.952C176.324 209.232 175.972 210.208 175.268 210.88C174.564 211.552 173.572 211.888 172.292 211.888H171.812V217.504H176.324V229.024C176.324 231.936 177.124 234.208 178.724 235.84C180.356 237.472 182.644 238.288 185.588 238.288ZM200.172 238H206.7V223.648H221.868V217.888H206.7V208H224.028V202.24H200.172V238ZM233.364 238.576C236.756 238.576 239.476 237.456 241.524 235.216V238H247.476V220.624C247.476 218.8 247.012 217.184 246.084 215.776C245.156 214.368 243.876 213.28 242.244 212.512C240.644 211.712 238.772 211.312 236.628 211.312C234.004 211.312 231.668 211.936 229.62 213.184C227.572 214.432 226.164 216.08 225.396 218.128L230.532 220.624C231.012 219.44 231.764 218.496 232.788 217.792C233.812 217.056 235.012 216.688 236.388 216.688C237.828 216.688 238.98 217.072 239.844 217.84C240.74 218.576 241.188 219.504 241.188 220.624V221.488L233.412 222.736C230.34 223.248 228.068 224.224 226.596 225.664C225.124 227.104 224.388 228.912 224.388 231.088C224.388 233.392 225.204 235.216 226.836 236.56C228.468 237.904 230.644 238.576 233.364 238.576ZM230.916 230.848C230.916 229.024 232.148 227.872 234.612 227.392L241.188 226.288V227.344C241.188 229.136 240.564 230.656 239.316 231.904C238.1 233.152 236.5 233.776 234.516 233.776C233.46 233.776 232.596 233.52 231.924 233.008C231.252 232.464 230.916 231.744 230.916 230.848ZM252.087 238H258.375V222.688C258.375 220.992 258.839 219.632 259.767 218.608C260.695 217.584 261.911 217.072 263.415 217.072C264.951 217.072 266.167 217.584 267.063 218.608C267.991 219.6 268.455 220.96 268.455 222.688V238H274.743V222.688C274.743 220.992 275.207 219.632 276.135 218.608C277.063 217.584 278.279 217.072 279.783 217.072C281.319 217.072 282.535 217.584 283.431 218.608C284.359 219.6 284.823 220.96 284.823 222.688V238H291.111V221.2C291.111 219.248 290.679 217.536 289.815 216.064C288.983 214.56 287.847 213.392 286.407 212.56C284.967 211.728 283.319 211.312 281.463 211.312C279.735 211.312 278.167 211.664 276.759 212.368C275.383 213.072 274.247 214.128 273.351 215.536C272.583 214.256 271.479 213.232 270.039 212.464C268.631 211.696 267.047 211.312 265.287 211.312C263.655 211.312 262.199 211.632 260.919 212.272C259.639 212.912 258.663 213.872 257.991 215.152V211.888H252.087V238ZM295.231 208.96H301.519V202.24H295.231V208.96ZM295.231 238H301.519V211.888H295.231V238ZM306.125 238H312.413V201.664H306.125V238ZM317.019 208.96H323.307V202.24H317.019V208.96ZM317.019 238H323.307V211.888H317.019V238ZM335.832 238.576C339.224 238.576 341.944 237.456 343.992 235.216V238H349.944V220.624C349.944 218.8 349.48 217.184 348.552 215.776C347.624 214.368 346.344 213.28 344.712 212.512C343.112 211.712 341.24 211.312 339.096 211.312C336.472 211.312 334.136 211.936 332.088 213.184C330.04 214.432 328.632 216.08 327.864 218.128L333 220.624C333.48 219.44 334.232 218.496 335.256 217.792C336.28 217.056 337.48 216.688 338.856 216.688C340.296 216.688 341.448 217.072 342.312 217.84C343.208 218.576 343.656 219.504 343.656 220.624V221.488L335.88 222.736C332.808 223.248 330.536 224.224 329.064 225.664C327.592 227.104 326.856 228.912 326.856 231.088C326.856 233.392 327.672 235.216 329.304 236.56C330.936 237.904 333.112 238.576 335.832 238.576ZM333.384 230.848C333.384 229.024 334.616 227.872 337.08 227.392L343.656 226.288V227.344C343.656 229.136 343.032 230.656 341.784 231.904C340.568 233.152 338.968 233.776 336.984 233.776C335.928 233.776 335.064 233.52 334.392 233.008C333.72 232.464 333.384 231.744 333.384 230.848ZM354.556 238H360.844V223.456C360.844 221.472 361.388 219.936 362.476 218.848C363.596 217.728 365.036 217.168 366.796 217.168H369.052V211.6H367.516C365.916 211.6 364.508 211.888 363.292 212.464C362.076 213.04 361.132 214.08 360.46 215.584V211.888H354.556V238ZM385.216 238H390.784L396.928 220.384L402.976 238H408.592L417.568 211.888H410.944L405.472 228.304L399.712 211.888H394.144L388.336 228.352L382.864 211.888H376.24L385.216 238ZM419.816 208.96H426.104V202.24H419.816V208.96ZM419.816 238H426.104V211.888H419.816V238ZM442.613 238.288C443.669 238.288 444.709 238.208 445.733 238.048V232.624C445.125 232.72 444.565 232.768 444.053 232.768C442.517 232.768 441.397 232.416 440.693 231.712C439.989 231.008 439.637 230 439.637 228.688V217.504H445.637V211.888H439.637V205.936H433.349V207.952C433.349 209.232 432.997 210.208 432.293 210.88C431.589 211.552 430.597 211.888 429.317 211.888H428.837V217.504H433.349V229.024C433.349 231.936 434.149 234.208 435.749 235.84C437.381 237.472 439.669 238.288 442.613 238.288ZM449.337 238H455.625V222.688C455.625 220.992 456.121 219.632 457.113 218.608C458.105 217.584 459.369 217.072 460.905 217.072C462.441 217.072 463.705 217.584 464.697 218.608C465.689 219.6 466.185 220.96 466.185 222.688V238H472.473V221.2C472.473 219.248 472.057 217.536 471.225 216.064C470.393 214.56 469.225 213.392 467.721 212.56C466.249 211.728 464.553 211.312 462.633 211.312C461.129 211.312 459.769 211.584 458.553 212.128C457.337 212.64 456.361 213.424 455.625 214.48V201.664H449.337V238ZM493.57 238H500.146V222.112L512.146 202.24H504.706L496.834 215.536L488.962 202.24H481.522L493.57 222.16V238ZM522.724 238.576C525.252 238.576 527.556 238 529.636 236.848C531.716 235.664 533.38 234.048 534.628 232C535.876 229.92 536.5 227.568 536.5 224.944C536.5 222.32 535.876 219.984 534.628 217.936C533.412 215.888 531.764 214.272 529.684 213.088C527.604 211.904 525.284 211.312 522.724 211.312C520.132 211.312 517.796 211.904 515.716 213.088C513.636 214.272 511.972 215.888 510.724 217.936C509.508 219.984 508.9 222.32 508.9 224.944C508.9 227.568 509.508 229.904 510.724 231.952C511.972 234 513.636 235.616 515.716 236.8C517.828 237.984 520.164 238.576 522.724 238.576ZM522.724 232.816C521.316 232.816 520.052 232.48 518.932 231.808C517.844 231.136 516.98 230.208 516.34 229.024C515.732 227.808 515.428 226.448 515.428 224.944C515.428 223.44 515.732 222.096 516.34 220.912C516.98 219.728 517.844 218.8 518.932 218.128C520.052 217.424 521.316 217.072 522.724 217.072C524.132 217.072 525.364 217.424 526.42 218.128C527.508 218.8 528.356 219.728 528.964 220.912C529.604 222.096 529.924 223.44 529.924 224.944C529.924 226.448 529.604 227.808 528.964 229.024C528.356 230.208 527.508 231.136 526.42 231.808C525.364 232.48 524.132 232.816 522.724 232.816ZM549.381 238.576C551.013 238.576 552.453 238.272 553.701 237.664C554.981 237.024 555.989 236.096 556.725 234.88V238H562.677V211.888H556.389V227.2C556.389 228.928 555.893 230.304 554.901 231.328C553.909 232.32 552.645 232.816 551.109 232.816C549.541 232.816 548.261 232.32 547.269 231.328C546.309 230.336 545.829 229.008 545.829 227.344V211.888H539.541V227.872C539.541 231.072 540.405 233.664 542.133 235.648C543.893 237.6 546.309 238.576 549.381 238.576ZM567.322 238H573.61V223.456C573.61 221.472 574.154 219.936 575.242 218.848C576.362 217.728 577.802 217.168 579.562 217.168H581.818V211.6H580.282C578.682 211.6 577.274 211.888 576.058 212.464C574.842 213.04 573.898 214.08 573.226 215.584V211.888H567.322V238ZM118.008 298H125.496L137.928 262.24H130.824L121.752 289.744L112.632 262.24H105.528L118.008 298ZM150.574 298.576C153.102 298.576 155.406 298 157.486 296.848C159.566 295.664 161.23 294.048 162.478 292C163.726 289.92 164.35 287.568 164.35 284.944C164.35 282.32 163.726 279.984 162.478 277.936C161.262 275.888 159.614 274.272 157.534 273.088C155.454 271.904 153.134 271.312 150.574 271.312C147.982 271.312 145.646 271.904 143.566 273.088C141.486 274.272 139.822 275.888 138.574 277.936C137.358 279.984 136.75 282.32 136.75 284.944C136.75 287.568 137.358 289.904 138.574 291.952C139.822 294 141.486 295.616 143.566 296.8C145.678 297.984 148.014 298.576 150.574 298.576ZM150.574 292.816C149.166 292.816 147.902 292.48 146.782 291.808C145.694 291.136 144.83 290.208 144.19 289.024C143.582 287.808 143.278 286.448 143.278 284.944C143.278 283.44 143.582 282.096 144.19 280.912C144.83 279.728 145.694 278.8 146.782 278.128C147.902 277.424 149.166 277.072 150.574 277.072C151.982 277.072 153.214 277.424 154.27 278.128C155.358 278.8 156.206 279.728 156.814 280.912C157.454 282.096 157.774 283.44 157.774 284.944C157.774 286.448 157.454 287.808 156.814 289.024C156.206 290.208 155.358 291.136 154.27 291.808C153.214 292.48 151.982 292.816 150.574 292.816ZM180.495 298.576C182.383 298.576 184.127 298.256 185.727 297.616C187.327 296.944 188.703 296.032 189.855 294.88C191.007 293.696 191.839 292.368 192.351 290.896L186.831 288.4C186.319 289.776 185.503 290.864 184.383 291.664C183.295 292.432 181.999 292.816 180.495 292.816C179.119 292.816 177.887 292.48 176.799 291.808C175.743 291.136 174.911 290.208 174.303 289.024C173.695 287.808 173.391 286.448 173.391 284.944C173.391 283.408 173.695 282.048 174.303 280.864C174.911 279.68 175.743 278.752 176.799 278.08C177.887 277.408 179.119 277.072 180.495 277.072C181.999 277.072 183.295 277.472 184.383 278.272C185.503 279.072 186.319 280.128 186.831 281.44L192.351 279.04C191.807 277.504 190.959 276.16 189.807 275.008C188.655 273.824 187.279 272.912 185.679 272.272C184.079 271.632 182.351 271.312 180.495 271.312C177.903 271.312 175.567 271.904 173.487 273.088C171.439 274.272 169.823 275.888 168.639 277.936C167.455 279.984 166.863 282.304 166.863 284.896C166.863 287.488 167.455 289.824 168.639 291.904C169.823 293.952 171.439 295.584 173.487 296.8C175.567 297.984 177.903 298.576 180.495 298.576ZM203.701 298.576C207.093 298.576 209.813 297.456 211.861 295.216V298H217.813V280.624C217.813 278.8 217.349 277.184 216.421 275.776C215.493 274.368 214.213 273.28 212.581 272.512C210.981 271.712 209.109 271.312 206.965 271.312C204.341 271.312 202.005 271.936 199.957 273.184C197.909 274.432 196.501 276.08 195.733 278.128L200.869 280.624C201.349 279.44 202.101 278.496 203.125 277.792C204.149 277.056 205.349 276.688 206.725 276.688C208.165 276.688 209.317 277.072 210.181 277.84C211.077 278.576 211.525 279.504 211.525 280.624V281.488L203.749 282.736C200.677 283.248 198.405 284.224 196.933 285.664C195.461 287.104 194.725 288.912 194.725 291.088C194.725 293.392 195.541 295.216 197.173 296.56C198.805 297.904 200.981 298.576 203.701 298.576ZM201.253 290.848C201.253 289.024 202.485 287.872 204.949 287.392L211.525 286.288V287.344C211.525 289.136 210.901 290.656 209.653 291.904C208.437 293.152 206.837 293.776 204.853 293.776C203.797 293.776 202.933 293.52 202.261 293.008C201.589 292.464 201.253 291.744 201.253 290.848ZM236.681 298.576C239.209 298.576 241.465 297.984 243.449 296.8C245.433 295.584 247.001 293.952 248.153 291.904C249.305 289.824 249.881 287.504 249.881 284.944C249.881 282.384 249.305 280.08 248.153 278.032C247.001 275.952 245.433 274.32 243.449 273.136C241.465 271.92 239.225 271.312 236.729 271.312C233.337 271.312 230.665 272.384 228.713 274.528V261.664H222.425V298H228.329V295.072C229.289 296.192 230.489 297.056 231.929 297.664C233.401 298.272 234.985 298.576 236.681 298.576ZM235.961 292.816C234.585 292.816 233.337 292.48 232.217 291.808C231.129 291.136 230.265 290.208 229.625 289.024C229.017 287.84 228.713 286.48 228.713 284.944C228.713 283.408 229.017 282.048 229.625 280.864C230.265 279.68 231.129 278.752 232.217 278.08C233.337 277.408 234.585 277.072 235.961 277.072C237.401 277.072 238.665 277.424 239.753 278.128C240.873 278.8 241.753 279.728 242.393 280.912C243.033 282.096 243.353 283.44 243.353 284.944C243.353 286.448 243.033 287.808 242.393 289.024C241.753 290.208 240.873 291.136 239.753 291.808C238.665 292.48 237.401 292.816 235.961 292.816ZM262.787 298.576C264.419 298.576 265.859 298.272 267.107 297.664C268.387 297.024 269.395 296.096 270.131 294.88V298H276.083V271.888H269.795V287.2C269.795 288.928 269.299 290.304 268.307 291.328C267.315 292.32 266.051 292.816 264.515 292.816C262.947 292.816 261.667 292.32 260.675 291.328C259.715 290.336 259.235 289.008 259.235 287.344V271.888H252.947V287.872C252.947 291.072 253.811 293.664 255.539 295.648C257.299 297.6 259.715 298.576 262.787 298.576ZM280.728 298H287.016V261.664H280.728V298ZM299.542 298.576C302.934 298.576 305.654 297.456 307.702 295.216V298H313.654V280.624C313.654 278.8 313.19 277.184 312.262 275.776C311.334 274.368 310.054 273.28 308.422 272.512C306.822 271.712 304.95 271.312 302.806 271.312C300.182 271.312 297.846 271.936 295.798 273.184C293.75 274.432 292.342 276.08 291.574 278.128L296.71 280.624C297.19 279.44 297.942 278.496 298.966 277.792C299.99 277.056 301.19 276.688 302.566 276.688C304.006 276.688 305.158 277.072 306.022 277.84C306.918 278.576 307.366 279.504 307.366 280.624V281.488L299.59 282.736C296.518 283.248 294.246 284.224 292.774 285.664C291.302 287.104 290.566 288.912 290.566 291.088C290.566 293.392 291.382 295.216 293.014 296.56C294.646 297.904 296.822 298.576 299.542 298.576ZM297.094 290.848C297.094 289.024 298.326 287.872 300.79 287.392L307.366 286.288V287.344C307.366 289.136 306.742 290.656 305.494 291.904C304.278 293.152 302.678 293.776 300.694 293.776C299.638 293.776 298.774 293.52 298.102 293.008C297.43 292.464 297.094 291.744 297.094 290.848ZM318.265 298H324.553V283.456C324.553 281.472 325.097 279.936 326.185 278.848C327.305 277.728 328.745 277.168 330.505 277.168H332.761V271.6H331.225C329.625 271.6 328.217 271.888 327.001 272.464C325.785 273.04 324.841 274.08 324.169 275.584V271.888H318.265V298ZM338.187 308.608C340.651 308.608 342.699 307.904 344.331 306.496C345.995 305.12 347.323 303.168 348.315 300.64L359.691 271.888H352.875L346.155 289.888L339.387 271.888H332.619L342.939 298L342.363 299.392C341.851 300.48 341.259 301.36 340.587 302.032C339.947 302.704 338.907 303.04 337.467 303.04C336.955 303.04 336.411 302.992 335.835 302.896C335.259 302.832 334.747 302.736 334.299 302.608V307.888C334.843 308.144 335.451 308.32 336.123 308.416C336.795 308.544 337.483 308.608 338.187 308.608ZM362.998 298H369.334V291.28H362.998V298Z" fill="black"/>
<path d="M106.188 163.786H107.664V163.912C107.592 163.984 107.544 164.062 107.52 164.146C107.508 164.23 107.502 164.374 107.502 164.578V173.92H112.902V175H106.188V163.786ZM117.762 175V163.768H124.638V164.884H118.95V168.574H123.648V169.726H118.95V173.884H124.584V175H117.762ZM132.846 175.18C131.394 175.18 130.224 174.706 129.336 173.758L129.984 172.624L130.056 172.462L130.182 172.534C130.206 172.618 130.236 172.714 130.272 172.822C130.308 172.918 130.392 173.038 130.524 173.182C130.836 173.446 131.196 173.656 131.604 173.812C132.024 173.968 132.498 174.046 133.026 174.046C133.698 174.046 134.25 173.86 134.682 173.488C135.126 173.104 135.348 172.648 135.348 172.12C135.348 171.772 135.276 171.478 135.132 171.238C135 170.998 134.748 170.764 134.376 170.536C134.016 170.308 133.482 170.044 132.774 169.744C131.61 169.288 130.806 168.778 130.362 168.214C129.918 167.65 129.696 167.05 129.696 166.414C129.696 165.586 130.002 164.92 130.614 164.416C131.226 163.9 132.06 163.642 133.116 163.642C133.728 163.642 134.304 163.768 134.844 164.02C135.384 164.26 135.846 164.602 136.23 165.046L135.42 166.126L135.312 166.054C135.3 165.958 135.276 165.862 135.24 165.766C135.204 165.67 135.12 165.55 134.988 165.406C134.7 165.13 134.394 164.944 134.07 164.848C133.746 164.74 133.362 164.686 132.918 164.686C132.33 164.686 131.862 164.848 131.514 165.172C131.166 165.496 130.992 165.88 130.992 166.324C130.992 166.66 131.064 166.96 131.208 167.224C131.364 167.476 131.64 167.728 132.036 167.98C132.432 168.232 133.008 168.508 133.764 168.808C134.496 169.108 135.066 169.414 135.474 169.726C135.882 170.026 136.17 170.356 136.338 170.716C136.506 171.064 136.59 171.472 136.59 171.94C136.59 172.456 136.458 172.966 136.194 173.47C135.942 173.962 135.54 174.37 134.988 174.694C134.436 175.018 133.722 175.18 132.846 175.18ZM144.546 175.18C143.094 175.18 141.924 174.706 141.036 173.758L141.684 172.624L141.756 172.462L141.882 172.534C141.906 172.618 141.936 172.714 141.972 172.822C142.008 172.918 142.092 173.038 142.224 173.182C142.536 173.446 142.896 173.656 143.304 173.812C143.724 173.968 144.198 174.046 144.726 174.046C145.398 174.046 145.95 173.86 146.382 173.488C146.826 173.104 147.048 172.648 147.048 172.12C147.048 171.772 146.976 171.478 146.832 171.238C146.7 170.998 146.448 170.764 146.076 170.536C145.716 170.308 145.182 170.044 144.474 169.744C143.31 169.288 142.506 168.778 142.062 168.214C141.618 167.65 141.396 167.05 141.396 166.414C141.396 165.586 141.702 164.92 142.314 164.416C142.926 163.9 143.76 163.642 144.816 163.642C145.428 163.642 146.004 163.768 146.544 164.02C147.084 164.26 147.546 164.602 147.93 165.046L147.12 166.126L147.012 166.054C147 165.958 146.976 165.862 146.94 165.766C146.904 165.67 146.82 165.55 146.688 165.406C146.4 165.13 146.094 164.944 145.77 164.848C145.446 164.74 145.062 164.686 144.618 164.686C144.03 164.686 143.562 164.848 143.214 165.172C142.866 165.496 142.692 165.88 142.692 166.324C142.692 166.66 142.764 166.96 142.908 167.224C143.064 167.476 143.34 167.728 143.736 167.98C144.132 168.232 144.708 168.508 145.464 168.808C146.196 169.108 146.766 169.414 147.174 169.726C147.582 170.026 147.87 170.356 148.038 170.716C148.206 171.064 148.29 171.472 148.29 171.94C148.29 172.456 148.158 172.966 147.894 173.47C147.642 173.962 147.24 174.37 146.688 174.694C146.136 175.018 145.422 175.18 144.546 175.18ZM156.3 175.198C155.016 175.198 154.026 174.7 153.33 173.704C152.634 172.708 152.286 171.292 152.286 169.456C152.286 167.68 152.634 166.282 153.33 165.262C154.026 164.23 155.016 163.714 156.3 163.714C157.584 163.714 158.574 164.23 159.27 165.262C159.966 166.282 160.314 167.68 160.314 169.456C160.314 171.292 159.966 172.708 159.27 173.704C158.574 174.7 157.584 175.198 156.3 175.198ZM156.3 174.1C157.152 174.1 157.818 173.698 158.298 172.894C158.778 172.09 159.018 170.944 159.018 169.456C159.018 168.04 158.778 166.912 158.298 166.072C157.818 165.232 157.152 164.812 156.3 164.812C155.448 164.812 154.782 165.232 154.302 166.072C153.822 166.912 153.582 168.04 153.582 169.456C153.582 170.944 153.822 172.09 154.302 172.894C154.782 173.698 155.448 174.1 156.3 174.1ZM164.4 163.786H165.624L170.34 172.102V163.786H171.708V163.912C171.636 163.984 171.588 164.062 171.564 164.146C171.552 164.23 171.546 164.374 171.546 164.578V175H170.556L165.606 166.18V175H164.4V163.786ZM188.898 169.942V168.736H193.938V169.942H188.898ZM214.8 175.198C213.684 175.198 212.826 174.7 212.226 173.704C211.626 172.708 211.326 171.292 211.326 169.456C211.326 167.68 211.626 166.282 212.226 165.262C212.826 164.23 213.684 163.714 214.8 163.714C215.916 163.714 216.774 164.23 217.374 165.262C217.974 166.282 218.274 167.68 218.274 169.456C218.274 171.292 217.974 172.708 217.374 173.704C216.774 174.7 215.916 175.198 214.8 175.198ZM212.622 169.456C212.622 170.224 212.676 170.908 212.784 171.508L216.6 166.594C216.42 166.03 216.174 165.592 215.862 165.28C215.562 164.968 215.208 164.812 214.8 164.812C214.116 164.812 213.582 165.232 213.198 166.072C212.814 166.912 212.622 168.04 212.622 169.456ZM214.8 174.1C215.484 174.1 216.018 173.698 216.402 172.894C216.786 172.09 216.978 170.944 216.978 169.456C216.978 168.796 216.936 168.196 216.852 167.656L213.036 172.498C213.408 173.566 213.996 174.1 214.8 174.1ZM226.14 175V165.334L223.872 166L223.584 165.298L226.518 163.768H227.4V175H226.14Z" fill="#777777"/>
<path d="M105.656 369V359.032H106.536L109 363.912L111.512 359.016H112.36V369H111.304V361.48L109.144 365.496H108.712L106.696 361.528V369H105.656ZM119.4 369.176C118.259 369.176 117.379 368.733 116.76 367.848C116.141 366.963 115.832 365.704 115.832 364.072C115.832 362.493 116.141 361.251 116.76 360.344C117.379 359.427 118.259 358.968 119.4 358.968C120.541 358.968 121.421 359.427 122.04 360.344C122.659 361.251 122.968 362.493 122.968 364.072C122.968 365.704 122.659 366.963 122.04 367.848C121.421 368.733 120.541 369.176 119.4 369.176ZM119.4 368.2C120.157 368.2 120.749 367.843 121.176 367.128C121.603 366.413 121.816 365.395 121.816 364.072C121.816 362.813 121.603 361.811 121.176 361.064C120.749 360.317 120.157 359.944 119.4 359.944C118.643 359.944 118.051 360.317 117.624 361.064C117.197 361.811 116.984 362.813 116.984 364.072C116.984 365.395 117.197 366.413 117.624 367.128C118.051 367.843 118.643 368.2 119.4 368.2ZM126.664 369.016V359.032H128.984C129.837 359.032 130.499 359.149 130.968 359.384C131.448 359.619 131.853 359.955 132.184 360.392C132.835 361.267 133.16 362.493 133.16 364.072C133.117 365.085 132.947 365.965 132.648 366.712C132.36 367.448 131.901 368.019 131.272 368.424C130.653 368.819 129.827 369.016 128.792 369.016H126.664ZM127.72 368.136H128.744C129.885 368.136 130.723 367.795 131.256 367.112C131.789 366.419 132.051 365.427 132.04 364.136C132.029 362.835 131.784 361.816 131.304 361.08C130.835 360.344 130.04 359.976 128.92 359.976H127.72V368.136ZM140.216 369.176C139.149 369.176 138.344 368.861 137.8 368.232C137.267 367.592 137 366.701 137 365.56V359.032H138.248V359.144C138.184 359.208 138.141 359.277 138.12 359.352C138.109 359.427 138.104 359.555 138.104 359.736V365.576C138.104 366.387 138.259 367.032 138.568 367.512C138.888 367.992 139.443 368.232 140.232 368.232C141.032 368.232 141.592 367.992 141.912 367.512C142.232 367.032 142.392 366.371 142.392 365.528V359.032H143.464V365.512C143.464 366.771 143.165 367.699 142.568 368.296C141.981 368.883 141.197 369.176 140.216 369.176ZM147.656 359.032H148.968V359.144C148.904 359.208 148.861 359.277 148.84 359.352C148.829 359.427 148.824 359.555 148.824 359.736V368.04H153.624V369H147.656V359.032ZM157.944 369V359.016H164.056V360.008H159V363.288H163.176V364.312H159V368.008H164.008V369H157.944ZM171.352 369.16C170.061 369.16 169.021 368.739 168.232 367.896L168.808 366.888L168.872 366.744L168.984 366.808C169.005 366.883 169.032 366.968 169.064 367.064C169.096 367.149 169.171 367.256 169.288 367.384C169.565 367.619 169.885 367.805 170.248 367.944C170.621 368.083 171.043 368.152 171.512 368.152C172.109 368.152 172.6 367.987 172.984 367.656C173.379 367.315 173.576 366.909 173.576 366.44C173.576 366.131 173.512 365.869 173.384 365.656C173.267 365.443 173.043 365.235 172.712 365.032C172.392 364.829 171.917 364.595 171.288 364.328C170.253 363.923 169.539 363.469 169.144 362.968C168.749 362.467 168.552 361.933 168.552 361.368C168.552 360.632 168.824 360.04 169.368 359.592C169.912 359.133 170.653 358.904 171.592 358.904C172.136 358.904 172.648 359.016 173.128 359.24C173.608 359.453 174.019 359.757 174.36 360.152L173.64 361.112L173.544 361.048C173.533 360.963 173.512 360.877 173.48 360.792C173.448 360.707 173.373 360.6 173.256 360.472C173 360.227 172.728 360.061 172.44 359.976C172.152 359.88 171.811 359.832 171.416 359.832C170.893 359.832 170.477 359.976 170.168 360.264C169.859 360.552 169.704 360.893 169.704 361.288C169.704 361.587 169.768 361.853 169.896 362.088C170.035 362.312 170.28 362.536 170.632 362.76C170.984 362.984 171.496 363.229 172.168 363.496C172.819 363.763 173.325 364.035 173.688 364.312C174.051 364.579 174.307 364.872 174.456 365.192C174.605 365.501 174.68 365.864 174.68 366.28C174.68 366.739 174.563 367.192 174.328 367.64C174.104 368.077 173.747 368.44 173.256 368.728C172.765 369.016 172.131 369.16 171.352 369.16Z" fill="#777777"/>
<circle cx="187.25" cy="364.25" r="6.25" fill="black"/>
<path d="M187.612 366.807C187.419 367.14 186.938 367.14 186.746 366.807L184.581 363.057C184.388 362.723 184.629 362.307 185.014 362.307H189.344C189.729 362.307 189.969 362.723 189.777 363.057L187.612 366.807Z" fill="white"/>
<rect x="105" y="399" width="570" height="105" rx="9" fill="#F2F2F2"/>
<rect x="105" y="399" width="570" height="105" rx="9" fill="#F2F2F2"/>
<rect x="139" y="467.727" width="120" height="19.0909" rx="3" fill="#E6E6E6"/>
<rect x="139" y="421.909" width="364" height="30.5455" rx="3" fill="#D9D9D9"/>
<ellipse cx="607" cy="452.455" rx="30" ry="28.6364" fill="#D9D9D9"/>
<path d="M607.923 466.432L620.81 453.545L607.923 440.659L604.957 443.612L612.743 451.385H594.5V455.706H612.743L604.957 463.491L607.923 466.432Z" fill="#E6E6E6"/>
<rect x="105" y="544" width="570" height="105" rx="9" fill="#F2F2F2"/>
<rect x="105" y="544" width="570" height="105" rx="9" fill="#F2F2F2"/>
<rect x="105" y="544" width="570" height="105" rx="9" fill="#F2F2F2"/>
<rect x="139" y="612.727" width="120" height="19.0909" rx="3" fill="#E6E6E6"/>
<rect x="139" y="566.909" width="364" height="30.5455" rx="3" fill="#D9D9D9"/>
<ellipse cx="607" cy="597.455" rx="30" ry="28.6364" fill="#D9D9D9"/>
<path d="M607.923 611.432L620.81 598.545L607.923 585.659L604.957 588.612L612.743 596.385H594.5V600.706H612.743L604.957 608.491L607.923 611.432Z" fill="#E6E6E6"/>
<rect x="105" y="689" width="570" height="105" rx="9" fill="#F2F2F2"/>
<rect x="105" y="689" width="570" height="105" rx="9" fill="#F2F2F2"/>
<rect x="105" y="689" width="570" height="105" rx="9" fill="#F2F2F2"/>
<rect x="139" y="757.727" width="120" height="19.0909" rx="3" fill="url(#paint1_linear)"/>
<rect x="139" y="711.909" width="364" height="30.5455" rx="3" fill="url(#paint2_linear)"/>
<ellipse cx="607" cy="742.455" rx="30" ry="28.6364" fill="url(#paint3_linear)"/>
<path d="M607.923 756.432L620.81 743.545L607.923 730.659L604.957 733.612L612.743 741.385H594.5V745.706H612.743L604.957 753.491L607.923 756.432Z" fill="url(#paint4_linear)"/>
<circle r="11.75" transform="matrix(-1 0 0 1 117 90)" stroke="#999999" stroke-width="0.5"/>
<path d="M117.038 96.7159L110.595 90.2727L117.038 83.8295L118.521 85.3061L114.629 89.1925H123.75V91.353H114.629L118.521 95.2457L117.038 96.7159Z" fill="#999999"/>
<path d="M143.182 95L142.174 91.94H138.772L137.764 95H136.27L140.284 83.624H140.716L144.73 95H143.182ZM140.482 86.81L139.15 90.806H141.814L140.482 86.81ZM148.834 83.786H150.562V83.93C150.49 84.002 150.442 84.08 150.418 84.164C150.406 84.248 150.4 84.392 150.4 84.596V93.722H155.71V95H148.834V83.786ZM160.534 83.786H162.262V83.93C162.19 84.002 162.142 84.08 162.118 84.164C162.106 84.248 162.1 84.392 162.1 84.596V93.722H167.41V95H160.534V83.786ZM183.934 83.786H185.662V83.93C185.59 84.002 185.542 84.08 185.518 84.164C185.506 84.248 185.5 84.392 185.5 84.596V93.722H190.81V95H183.934V83.786ZM195.508 95V83.768H202.528V85.064H196.966V88.484H201.556V89.816H196.966V93.704H202.474V95H195.508ZM210.61 95.18C209.11 95.18 207.916 94.718 207.028 93.794L207.802 92.48L207.874 92.318L208 92.39C208.036 92.486 208.066 92.582 208.09 92.678C208.126 92.774 208.216 92.894 208.36 93.038C208.66 93.278 209.008 93.476 209.404 93.632C209.812 93.788 210.262 93.866 210.754 93.866C211.39 93.866 211.912 93.698 212.32 93.362C212.74 93.026 212.95 92.606 212.95 92.102C212.95 91.79 212.884 91.52 212.752 91.292C212.62 91.064 212.38 90.836 212.032 90.608C211.684 90.38 211.168 90.116 210.484 89.816C209.32 89.348 208.516 88.838 208.072 88.286C207.628 87.734 207.406 87.116 207.406 86.432C207.406 85.604 207.718 84.932 208.342 84.416C208.978 83.888 209.824 83.624 210.88 83.624C211.528 83.624 212.122 83.75 212.662 84.002C213.214 84.242 213.694 84.59 214.102 85.046L213.238 86.126L213.13 86.27L213.004 86.18C212.992 86.084 212.968 85.988 212.932 85.892C212.896 85.796 212.812 85.676 212.68 85.532C212.416 85.28 212.128 85.112 211.816 85.028C211.516 84.932 211.162 84.884 210.754 84.884C210.202 84.884 209.758 85.028 209.422 85.316C209.098 85.604 208.936 85.946 208.936 86.342C208.936 86.654 209.002 86.93 209.134 87.17C209.278 87.398 209.536 87.632 209.908 87.872C210.292 88.112 210.844 88.382 211.564 88.682C212.308 88.994 212.884 89.312 213.292 89.636C213.712 89.948 214.006 90.29 214.174 90.662C214.354 91.022 214.444 91.448 214.444 91.94C214.444 92.456 214.312 92.966 214.048 93.47C213.784 93.974 213.37 94.388 212.806 94.712C212.242 95.024 211.51 95.18 210.61 95.18ZM222.31 95.18C220.81 95.18 219.616 94.718 218.728 93.794L219.502 92.48L219.574 92.318L219.7 92.39C219.736 92.486 219.766 92.582 219.79 92.678C219.826 92.774 219.916 92.894 220.06 93.038C220.36 93.278 220.708 93.476 221.104 93.632C221.512 93.788 221.962 93.866 222.454 93.866C223.09 93.866 223.612 93.698 224.02 93.362C224.44 93.026 224.65 92.606 224.65 92.102C224.65 91.79 224.584 91.52 224.452 91.292C224.32 91.064 224.08 90.836 223.732 90.608C223.384 90.38 222.868 90.116 222.184 89.816C221.02 89.348 220.216 88.838 219.772 88.286C219.328 87.734 219.106 87.116 219.106 86.432C219.106 85.604 219.418 84.932 220.042 84.416C220.678 83.888 221.524 83.624 222.58 83.624C223.228 83.624 223.822 83.75 224.362 84.002C224.914 84.242 225.394 84.59 225.802 85.046L224.938 86.126L224.83 86.27L224.704 86.18C224.692 86.084 224.668 85.988 224.632 85.892C224.596 85.796 224.512 85.676 224.38 85.532C224.116 85.28 223.828 85.112 223.516 85.028C223.216 84.932 222.862 84.884 222.454 84.884C221.902 84.884 221.458 85.028 221.122 85.316C220.798 85.604 220.636 85.946 220.636 86.342C220.636 86.654 220.702 86.93 220.834 87.17C220.978 87.398 221.236 87.632 221.608 87.872C221.992 88.112 222.544 88.382 223.264 88.682C224.008 88.994 224.584 89.312 224.992 89.636C225.412 89.948 225.706 90.29 225.874 90.662C226.054 91.022 226.144 91.448 226.144 91.94C226.144 92.456 226.012 92.966 225.748 93.47C225.484 93.974 225.07 94.388 224.506 94.712C223.942 95.024 223.21 95.18 222.31 95.18ZM234.118 95.198C232.798 95.198 231.784 94.7 231.076 93.704C230.38 92.708 230.032 91.286 230.032 89.438C230.032 87.65 230.38 86.246 231.076 85.226C231.784 84.194 232.798 83.678 234.118 83.678C235.426 83.678 236.428 84.194 237.124 85.226C237.832 86.246 238.186 87.65 238.186 89.438C238.186 91.286 237.832 92.708 237.124 93.704C236.428 94.7 235.426 95.198 234.118 95.198ZM234.118 93.92C234.91 93.92 235.528 93.542 235.972 92.786C236.416 92.018 236.638 90.902 236.638 89.438C236.638 88.058 236.416 86.972 235.972 86.18C235.528 85.376 234.91 84.974 234.118 84.974C233.314 84.974 232.69 85.376 232.246 86.18C231.802 86.972 231.58 88.058 231.58 89.438C231.58 90.902 231.802 92.018 232.246 92.786C232.69 93.542 233.314 93.92 234.118 93.92ZM242.128 83.786H243.64L248.05 91.796L248.014 83.786H249.598V83.93C249.526 84.002 249.478 84.08 249.454 84.164C249.442 84.248 249.436 84.392 249.436 84.596V95H248.14L243.532 86.504V95H242.128V83.786ZM257.41 95.18C255.91 95.18 254.716 94.718 253.828 93.794L254.602 92.48L254.674 92.318L254.8 92.39C254.836 92.486 254.866 92.582 254.89 92.678C254.926 92.774 255.016 92.894 255.16 93.038C255.46 93.278 255.808 93.476 256.204 93.632C256.612 93.788 257.062 93.866 257.554 93.866C258.19 93.866 258.712 93.698 259.12 93.362C259.54 93.026 259.75 92.606 259.75 92.102C259.75 91.79 259.684 91.52 259.552 91.292C259.42 91.064 259.18 90.836 258.832 90.608C258.484 90.38 257.968 90.116 257.284 89.816C256.12 89.348 255.316 88.838 254.872 88.286C254.428 87.734 254.206 87.116 254.206 86.432C254.206 85.604 254.518 84.932 255.142 84.416C255.778 83.888 256.624 83.624 257.68 83.624C258.328 83.624 258.922 83.75 259.462 84.002C260.014 84.242 260.494 84.59 260.902 85.046L260.038 86.126L259.93 86.27L259.804 86.18C259.792 86.084 259.768 85.988 259.732 85.892C259.696 85.796 259.612 85.676 259.48 85.532C259.216 85.28 258.928 85.112 258.616 85.028C258.316 84.932 257.962 84.884 257.554 84.884C257.002 84.884 256.558 85.028 256.222 85.316C255.898 85.604 255.736 85.946 255.736 86.342C255.736 86.654 255.802 86.93 255.934 87.17C256.078 87.398 256.336 87.632 256.708 87.872C257.092 88.112 257.644 88.382 258.364 88.682C259.108 88.994 259.684 89.312 260.092 89.636C260.512 89.948 260.806 90.29 260.974 90.662C261.154 91.022 261.244 91.448 261.244 91.94C261.244 92.456 261.112 92.966 260.848 93.47C260.584 93.974 260.17 94.388 259.606 94.712C259.042 95.024 258.31 95.18 257.41 95.18Z" fill="#777777"/>
<path d="M663 95C663 95.5523 662.552 96 662 96H655C654.448 96 654 95.5523 654 95C654 94.4477 654.448 94 655 94H662C662.552 94 663 94.4477 663 95ZM672 90C672 90.5523 671.552 91 671 91H655C654.448 91 654 90.5523 654 90C654 89.4477 654.448 89 655 89H671C671.552 89 672 89.4477 672 90ZM672 85C672 85.5523 671.552 86 671 86H664C663.448 86 663 85.5523 663 85C663 84.4477 663.448 84 664 84H671C671.552 84 672 84.4477 672 85Z" fill="#777777"/>
<path d="M601.684 96V84.786H602.944L605.518 90.168L608.128 84.768H609.352V96H607.966V87.756L605.77 92.13H605.104L603.052 87.792V96H601.684ZM613.708 96V84.768H620.728V86.064H615.166V89.484H619.756V90.816H615.166V94.704H620.674V96H613.708ZM625.228 84.786H626.74L631.15 92.796L631.114 84.786H632.698V84.93C632.626 85.002 632.578 85.08 632.554 85.164C632.542 85.248 632.536 85.392 632.536 85.596V96H631.24L626.632 87.504V96H625.228V84.786ZM640.618 96.216C639.406 96.216 638.482 95.856 637.846 95.136C637.222 94.416 636.91 93.408 636.91 92.112V84.786H638.584V84.93C638.512 85.002 638.464 85.08 638.44 85.164C638.428 85.248 638.422 85.392 638.422 85.596V92.13C638.422 92.994 638.584 93.684 638.908 94.2C639.232 94.704 639.808 94.956 640.636 94.956C641.464 94.956 642.04 94.704 642.364 94.2C642.7 93.684 642.868 92.976 642.868 92.076V84.786H644.344V92.058C644.344 93.486 644.002 94.536 643.318 95.208C642.634 95.88 641.734 96.216 640.618 96.216Z" fill="#777777"/>
<defs>
<linearGradient id="paint0_linear" x1="390" y1="-183.102" x2="390" y2="794" gradientUnits="userSpaceOnUse">
<stop stop-color="white"/>
<stop offset="1" stop-color="#F2F2F2"/>
</linearGradient>
<linearGradient id="paint1_linear" x1="199" y1="743.5" x2="199" y2="776.818" gradientUnits="userSpaceOnUse">
<stop stop-color="#E6E6E6"/>
<stop offset="1" stop-color="#F2F2F2"/>
</linearGradient>
<linearGradient id="paint2_linear" x1="321" y1="659" x2="321" y2="742" gradientUnits="userSpaceOnUse">
<stop stop-color="#D9D9D9"/>
<stop offset="1" stop-color="#F2F2F2"/>
</linearGradient>
<linearGradient id="paint3_linear" x1="607" y1="659" x2="607" y2="771.091" gradientUnits="userSpaceOnUse">
<stop stop-color="#D9D9D9"/>
<stop offset="1" stop-color="#F2F2F2"/>
</linearGradient>
<linearGradient id="paint4_linear" x1="609" y1="688" x2="607.5" y2="764" gradientUnits="userSpaceOnUse">
<stop stop-color="#E6E6E6"/>
<stop offset="1" stop-color="#F2F2F2"/>
</linearGradient>
</defs>
</svg>
